<?xml version="1.0" encoding="utf-8"?>
<!-- Generator: Adobe Illustrator 16.0.0, SVG Export Plug-In . SVG Version: 6.00 Build 0)  -->
<!DOCTYPE svg PUBLIC "-//W3C//DTD SVG 1.1//EN" "http://www.w3.org/Graphics/SVG/1.1/DTD/svg11.dtd">
<svg version="1.1" id="Layer_1" xmlns="http://www.w3.org/2000/svg" xmlns:xlink="http://www.w3.org/1999/xlink" x="0px" y="0px"
	 width="40px" height="40px" viewBox="0 0 40 40" enable-background="new 0 0 40 40" xml:space="preserve">
<g>
	<g>
		<path fill="#010101" d="M33.47,21.386l-2.603-2.601V15.99c0-0.756-0.613-1.371-1.371-1.371c-0.755,0-1.369,0.615-1.369,1.371
			v15.731c0,0.25,0,0.91-0.942,0.94H12.902c-0.25,0-0.913,0-0.942-0.94V15.926c0-0.756-0.614-1.37-1.371-1.37
			c-0.757,0-1.371,0.614-1.371,1.37v2.861l-2.6,2.601l-3.521-3.52l9.195-9.198h2.698l3.991,3.99c0.038,0.049,0.072,0.1,0.117,0.143
			c0.267,0.268,0.62,0.402,0.97,0.402c0.003,0,0.008-0.001,0.012-0.001c0.004,0,0.009,0.001,0.011,0.001
			c0.351,0,0.703-0.134,0.971-0.402c0.046-0.043,0.08-0.094,0.116-0.143l3.992-3.99h2.623l9.197,9.196L33.47,21.386z M21.294,8.668
			l-1.215,1.216l-1.215-1.216H21.294z M39.229,16.23l-9.604-9.604c-0.117-0.116-0.746-0.697-1.662-0.697
			c-0.091,0-0.196,0.007-0.305,0.023c-0.141-0.014-0.287-0.023-0.437-0.023h-2.618h-0.009h-9.034h-0.01h-2.615
			c-0.143,0-0.296,0.011-0.45,0.032c-0.132-0.024-0.256-0.032-0.366-0.032c-0.916,0-1.542,0.581-1.662,0.697L0.858,16.23
			C0.211,16.876,0,17.722,0.275,18.549c0.173,0.518,0.489,0.86,0.583,0.953l4.124,4.123c0.576,0.579,1.195,0.698,1.611,0.698
			c0.917,0,1.546-0.581,1.662-0.698l0.963-0.963v9.059c0,1.48,0.98,3.684,3.683,3.684h14.284c1.479,0,3.683-0.983,3.683-3.684
			v-9.062l0.965,0.966c0.116,0.117,0.745,0.697,1.661,0.697c0.417,0,1.036-0.12,1.611-0.697l4.122-4.123
			c0.117-0.116,0.697-0.745,0.7-1.662C39.928,17.425,39.805,16.807,39.229,16.23"/>
	</g>
	<g>
		<path fill="#010101" d="M24.495,13.382c0.938,0,1.699,0.762,1.699,1.702c0,0.942-0.762,1.705-1.699,1.705
			c-0.941,0-1.705-0.762-1.705-1.705C22.79,14.144,23.554,13.382,24.495,13.382"/>
	</g>
</g>
</svg>
