<?xml version="1.0" encoding="utf-8"?>
<!-- Generator: Adobe Illustrator 16.0.0, SVG Export Plug-In . SVG Version: 6.00 Build 0)  -->
<!DOCTYPE svg PUBLIC "-//W3C//DTD SVG 1.1//EN" "http://www.w3.org/Graphics/SVG/1.1/DTD/svg11.dtd">
<svg version="1.1" id="Layer_1" xmlns="http://www.w3.org/2000/svg" xmlns:xlink="http://www.w3.org/1999/xlink" x="0px" y="0px"
	 width="16px" height="16px" viewBox="412.945 230.222 16 16" enable-background="new 412.945 230.222 16 16" xml:space="preserve">
<path fill="#FFFFFF" d="M427.91,238.836c0.086,0.103,0.354,0.476,0.354,1.093c0,0.731-0.381,1.125-0.381,1.125h-0.351
	c0.112,0.136,0.286,0.439,0.286,1.029c0,0.869-0.382,1.125-0.382,1.125h-0.494c0.111,0.122,0.303,0.42,0.303,1.052
	c0,0.89-0.381,1.125-0.381,1.125h-9.423v-8.799h-0.002c1.256-1.144,2.97-2.503,2.572-5.068c-0.105-0.677-0.313-1.069,0.348-1.252
	c0.662-0.182,1.345,0.207,1.527,0.868c0.444,1.617,0.396,3.702-0.453,5.453h6.514c0,0,0.414,0.604,0.382,1.187
	s-0.382,1.062-0.382,1.062H427.91L427.91,238.836z M413.431,246.235h2.674v-9.647h-2.674V246.235z"/>
</svg>
