<?xml version="1.0" encoding="utf-8"?>
<!-- Generator: Adobe Illustrator 16.0.0, SVG Export Plug-In . SVG Version: 6.00 Build 0)  -->
<!DOCTYPE svg PUBLIC "-//W3C//DTD SVG 1.1//EN" "http://www.w3.org/Graphics/SVG/1.1/DTD/svg11.dtd">
<svg version="1.1" id="Layer_1" xmlns="http://www.w3.org/2000/svg" xmlns:xlink="http://www.w3.org/1999/xlink" x="0px" y="0px"
	 width="40px" height="40px" viewBox="0 0 40 40" enable-background="new 0 0 40 40" xml:space="preserve">
<g>
	<circle fill="#010101" cx="31.655" cy="33.602" r="3.135"/>
	<path fill="#010101" d="M12.562,9.522c0,0-1.559,0.363-2.037,0.609c-0.482,0.193-3.069,2.513-4.101,3.835
		c-0.37,1.514-1.054,5.083-1.205,6.562C5.103,21.473,6.035,21.7,6.29,21.722c0.079,0.006,1.19,0.05,1.324-1.008
		c0.134-1.058,1.008-5.435,1.008-5.435l3.597-2.236c0,0-0.318,0.872-1.057,1.429c-0.742,0.555,4.258,9.868,4.258,9.868
		s4.814,6.077,4.869,6.157s3.988,6.465,3.988,6.465s0.661,0.979,1.957,0.206c0.977-0.605,0.179-1.972,0.179-1.972l-3.128-6.015
		l-3.763-6.352c0,0-0.211-8.834-1.746-13.307C17.774,9.522,15.764,11.56,12.562,9.522z"/>
	<path fill="#010101" d="M11.385,33.604c0,0-1.894-1.899-0.282-3.004l5.024-3.228l2.044,2.641L11.385,33.604z"/>
	<path fill="#010101" d="M20.822,22.136l0.067,1.358l2.183,3.441C23.072,26.936,24.306,26.502,20.822,22.136z"/>
	<path fill="#010101" d="M19.158,10.29c0,0,0.679,1.27,0.799,4.127l1.903,1.448l3.494,0.618c0,0,1.113-0.07,1.205-1.205
		c0.079-0.979-0.973-1.128-1.205-1.205c-0.078-0.027-2.493-0.529-2.493-0.529L19.158,10.29z"/>
	<path fill="#010101" d="M15.239,2.537c-0.414,0-2.368,0.212-2.368,2.368c0,2.155,0.929,4.213,2.368,4.213
		c1.44,0,2.367-2.248,2.367-4.213C17.606,2.939,15.793,2.537,15.239,2.537z"/>
</g>
</svg>
