<?xml version="1.0" encoding="utf-8"?>
<!-- Generator: Adobe Illustrator 16.0.0, SVG Export Plug-In . SVG Version: 6.00 Build 0)  -->
<!DOCTYPE svg PUBLIC "-//W3C//DTD SVG 1.1//EN" "http://www.w3.org/Graphics/SVG/1.1/DTD/svg11.dtd">
<svg version="1.1" id="Layer_1" xmlns="http://www.w3.org/2000/svg" xmlns:xlink="http://www.w3.org/1999/xlink" x="0px" y="0px"
	 width="40px" height="40px" viewBox="0 0 40 40" enable-background="new 0 0 40 40" xml:space="preserve">
<g>
	<path fill="#010101" d="M34.277,8.311c-3.562-1.865-8.499-2.851-14.276-2.851S9.287,6.446,5.725,8.311
		c-3.629,1.9-5.628,4.637-5.628,7.704c0,0.405,0.038,0.803,0.106,1.196l0.571,8.333h0.004c0.187,5.791,7.86,9.666,19.223,9.666
		c11.361,0,19.035-3.875,19.222-9.666h0.005l0.274-4.025c0-0.001,0.002-0.002,0.002-0.003l0.294-4.299
		c0.069-0.394,0.105-0.795,0.105-1.201C39.903,12.947,37.906,10.211,34.277,8.311z M1.84,21.422l-0.056-0.819
		c0.562,0.703,1.255,1.364,2.08,1.967c0.562,0.41,1.183,0.794,1.86,1.148c0.594,0.312,1.23,0.596,1.898,0.857v2.777
		c-1.935-0.801-3.523-1.816-4.544-3.038C2.357,23.45,1.915,22.487,1.84,21.422L1.84,21.422z M5.397,16.13
		c0.209,2.003,1.822,3.663,4.482,4.804l-2.088,2.259c-3.612-1.487-5.787-3.677-6.251-6.163l-0.062-0.9H5.397L5.397,16.13z
		 M19.552,25.219c-4.333-0.04-7.991-0.655-10.859-1.682l2.085-2.254c2.331,0.831,5.319,1.311,8.774,1.35V25.219z M20.449,22.633
		c3.456-0.039,6.442-0.519,8.775-1.35l2.085,2.255c-2.87,1.025-6.528,1.641-10.86,1.681V22.633z M28.843,20.235l-0.947-0.886h-0.964
		l0.827,0.939h0.926c-0.347,0.118-0.709,0.229-1.085,0.331l-1.41-1.607h1.345l-0.588-0.55h-2.541l1.589,2.527
		c-0.117,0.022-0.236,0.044-0.354,0.064l-1.844-2.929h2.791l-0.469-0.437h-5.957l0.004,0.768c1.209,0.046,2.225,0.56,2.439,1.263
		c0.099,0.309,0.04,0.623-0.168,0.908c-0.347,0.472-1.059,0.791-1.92,0.882c-0.111,0.001-0.222,0.002-0.334,0.003
		c-0.062,0-0.122,0.002-0.183,0.002c-0.051,0-0.103-0.002-0.153-0.002c-0.114,0-0.228-0.002-0.34-0.003
		c-0.86-0.09-1.576-0.407-1.927-0.878c-0.213-0.283-0.277-0.599-0.185-0.91c0.209-0.706,1.22-1.222,2.433-1.266l-0.004-0.767h-5.95
		l-0.464,0.437h2.783l-1.814,2.932c-0.12-0.021-0.238-0.042-0.355-0.064l1.566-2.531h-2.537l-0.583,0.551h1.339l-1.402,1.608
		c-0.38-0.102-0.744-0.214-1.092-0.332h0.935l0.82-0.94h-0.957l-0.944,0.891c-0.121-0.042-0.236-0.086-0.352-0.13l2.921-2.757
		h12.509l2.946,2.752C29.08,20.149,28.962,20.193,28.843,20.235z M20.001,15.422c-5.902,0-9.941,1.38-11.687,3.365
		c-0.503-0.377-0.908-0.786-1.208-1.223c0.934-1.226,3.99-3.889,12.895-3.889s11.962,2.664,12.893,3.888
		c-0.299,0.438-0.704,0.847-1.206,1.224C29.94,16.803,25.902,15.422,20.001,15.422z M29.772,12.226v-0.734
		c2.004,0.873,3.295,2.052,3.64,3.433C32.722,13.873,31.492,12.947,29.772,12.226z M28.874,11.884
		c-2.18-0.753-5.013-1.211-8.424-1.249V9.851c3.33,0.038,6.217,0.502,8.424,1.288V11.884z M19.552,10.635
		c-3.411,0.038-6.244,0.496-8.425,1.249v-0.746c2.208-0.786,5.096-1.25,8.425-1.288V10.635z M10.229,12.226
		c-1.72,0.72-2.948,1.646-3.64,2.697c0.346-1.381,1.636-2.559,3.64-3.432V12.226z M8.52,24.905
		c3.076,1.056,6.824,1.621,11.033,1.658v2.965c-3.858-0.046-7.829-0.664-11.033-1.825V24.905z M20.449,26.564
		c4.208-0.037,7.958-0.604,11.031-1.658v2.797c-3.201,1.161-7.174,1.779-11.031,1.825V26.564z M32.211,23.192l-2.088-2.259
		c2.659-1.141,4.271-2.8,4.482-4.804h3.947C38.494,18.985,36.253,21.527,32.211,23.192z M38.5,15.233h-3.895
		c-0.209-1.996-1.811-3.649-4.453-4.79l1.75-1.73C35.814,10.247,38.122,12.58,38.5,15.233z M29.239,10.085
		c-2.333-0.835-5.326-1.317-8.79-1.355V6.81c4.164,0.039,7.708,0.607,10.524,1.561L29.239,10.085z M19.552,6.81v1.919
		c-3.463,0.039-6.457,0.521-8.79,1.355L9.029,8.37C11.845,7.417,15.388,6.849,19.552,6.81z M8.099,8.712l1.749,1.73
		c-2.642,1.14-4.243,2.794-4.452,4.79H1.502C1.881,12.58,4.187,10.247,8.099,8.712z M2.119,25.399L2.113,25.4l-0.015-0.222
		c0.057,0.066,0.118,0.132,0.177,0.197c0.923,1.022,2.181,1.954,3.75,2.747c0.507,0.255,1.042,0.492,1.598,0.712v2.877
		C4.188,30.211,2.157,28.014,2.119,25.399z M8.52,29.171c3.095,1.08,6.847,1.664,11.033,1.701v2.986
		c-4.335-0.042-8.113-0.683-11.033-1.782V29.171z M20.449,30.872c4.187-0.037,7.938-0.621,11.031-1.701v2.905
		c-2.918,1.1-6.695,1.74-11.031,1.782V30.872z M37.888,25.4l-0.007-0.001c-0.037,2.614-2.066,4.812-5.502,6.312v-2.877
		c0.555-0.22,1.09-0.457,1.596-0.712c1.569-0.793,2.829-1.725,3.751-2.747c0.061-0.065,0.12-0.131,0.177-0.198L37.888,25.4z
		 M38.162,21.422L38.162,21.422L38.162,21.422c-0.075,1.065-0.519,2.029-1.239,2.893c-1.021,1.222-2.609,2.238-4.544,3.038v-2.777
		c0.668-0.261,1.304-0.546,1.898-0.857c0.677-0.354,1.298-0.739,1.858-1.148c0.825-0.603,1.519-1.263,2.081-1.967L38.162,21.422z"/>
	<path fill="#010101" d="M22.166,20.43c0.144-0.196,0.185-0.401,0.118-0.608c-0.168-0.551-1.081-0.982-2.116-1.027l0.014,2.402
		C21.072,21.163,21.843,20.871,22.166,20.43z"/>
	<path fill="#010101" d="M17.718,19.818c-0.061,0.208-0.018,0.415,0.131,0.613c0.33,0.441,1.104,0.732,1.995,0.766l-0.014-2.404
		C18.794,18.835,17.881,19.268,17.718,19.818z"/>
</g>
</svg>
