<?xml version="1.0" encoding="utf-8"?>
<!-- Generator: Adobe Illustrator 18.1.1, SVG Export Plug-In . SVG Version: 6.00 Build 0)  -->
<svg version="1.1" id="Layer_1" xmlns="http://www.w3.org/2000/svg" xmlns:xlink="http://www.w3.org/1999/xlink" x="0px" y="0px"
	 viewBox="410.9 287.6 20 20" enable-background="new 410.9 287.6 20 20" xml:space="preserve">
<path fill="#FFFFFF" d="M412.5,296.1c0,0,5.5-5.5,6.9-6.9c0.2-0.2,0.5-0.2,0.7,0c0.5,0.5,1.3,1.3,1.8,1.8c0.2,0.2,0.2,0.5,0,0.7
	l-4.5,4.5h12.9c0.3,0,0.5,0.2,0.5,0.5c0,0.7,0,1.8,0,2.5c0,0.3-0.2,0.5-0.5,0.5h-12.9l4.5,4.5c0.2,0.2,0.2,0.5,0,0.7
	c-0.5,0.5-1.3,1.3-1.8,1.8c-0.2,0.2-0.5,0.2-0.7,0l-6.7-6.7c0,0-1.1-1.1-1.7-1.7c-0.2-0.2-0.2-0.5,0-0.7L412.5,296.1L412.5,296.1
	L412.5,296.1z"/>
</svg>
