<?xml version="1.0" encoding="utf-8"?>
<!-- Generator: Adobe Illustrator 16.0.0, SVG Export Plug-In . SVG Version: 6.00 Build 0)  -->
<!DOCTYPE svg PUBLIC "-//W3C//DTD SVG 1.1//EN" "http://www.w3.org/Graphics/SVG/1.1/DTD/svg11.dtd">
<svg version="1.1" id="Layer_1" xmlns="http://www.w3.org/2000/svg" xmlns:xlink="http://www.w3.org/1999/xlink" x="0px" y="0px"
	 width="30px" height="30px" viewBox="0 0 30 30" enable-background="new 0 0 30 30" xml:space="preserve">
<g>
	<path fill="#FFFFFF" d="M15,21.633c-4.332,0-7.972-2.961-9.005-6.97c-1.59,0.152-2.83,0.305-3.488,0.39
		c2.175,7.81,10.473,14.701,12.654,14.701c2.549,0,10.346-6.847,12.37-14.696c-0.646-0.084-1.904-0.238-3.525-0.394
		C22.971,18.673,19.329,21.633,15,21.633z"/>
	<path fill="#FFFFFF" d="M14.946,0.246L1.981,3.966v6.509c0,0,1.596-0.229,3.998-0.46c1.01-4.043,4.664-7.039,9.02-7.039
		c4.357,0,8.014,2.998,9.022,7.043c2.399,0.229,3.996,0.456,3.996,0.456V3.966L14.946,0.246z"/>
	<path fill="#FFFFFF" d="M8.959,16.793c0.914,1.235,2.164,2.149,3.614,2.645c0.777,0.264,1.586,0.399,2.404,0.402
		c0.821,0.002,1.636-0.123,2.414-0.385c0.477-0.158,0.94-0.361,1.377-0.613l0,0c0.89-0.516,1.647-1.204,2.262-2.03
		c0.923-1.244,1.43-2.725,1.47-4.278v-0.062c0.002-0.039,0.002-0.079,0.003-0.118c0.004-1.525-0.448-2.995-1.306-4.251
		c-0.928-1.355-2.292-2.385-3.847-2.897c-0.755-0.249-1.54-0.375-2.333-0.378c-0.819-0.002-1.63,0.129-2.408,0.391
		C11.088,5.73,9.73,6.754,8.816,8.078c-0.862,1.25-1.319,2.715-1.323,4.236c0,0.035,0,0.07,0.002,0.104l0.001,0.053
		C7.523,14.041,8.03,15.535,8.959,16.793z M21.275,12.122c0.164,0.321,0.371,0.764,0.387,1.127c0-0.006,0.172-0.121,0.188-0.136
		c0.008-0.006,0.014-0.012,0.021-0.018c0.023-0.021,0.045-0.042,0.07-0.068c0.003-0.004,0.009-0.009,0.014-0.012
		c0.017-0.018,0.037-0.039,0.056-0.059c-0.104,1.186-0.5,2.286-1.119,3.229c-0.012-0.09-0.023-0.181-0.055-0.265
		c-0.052-0.149-0.087-0.127-0.199-0.037c-0.255,0.208-0.577,0.313-0.88,0.428c-0.504,0.189-1.036,0.296-1.572,0.323l-1.487-1.919
		l1.016-3.05l2.494-0.798C20.655,11.197,21.02,11.628,21.275,12.122z M15.093,6.882c0.099-0.07,0.201-0.136,0.305-0.196
		c0.284-0.166,0.587-0.294,0.901-0.385c0.303-0.086,0.599-0.077,0.904-0.13c0.179-0.03,0.369-0.028,0.542-0.068
		c-0.011-0.035-0.025-0.072-0.043-0.106c-0.001-0.006-0.003-0.012-0.007-0.018c-0.006-0.014-0.014-0.029-0.022-0.045
		c-0.003-0.006-0.004-0.011-0.007-0.017c-0.012-0.022-0.025-0.048-0.039-0.077c-0.001-0.001,0.002-0.005,0.002-0.008
		c1.159,0.464,2.168,1.229,2.925,2.199c-0.024-0.003-0.049-0.009-0.073-0.012c-0.003,0-0.007-0.001-0.012-0.001
		c-0.033-0.005-0.064-0.008-0.092-0.011c-0.051-0.004-0.187-0.034-0.218,0.02c-0.044,0.07,0.049,0.218,0.062,0.288
		c0.012,0.079,0.016,0.16,0.03,0.24c0.035,0.186,0.058,0.376,0.069,0.565c0.015,0.243,0.009,0.486-0.012,0.729
		c-0.012,0.141-0.028,0.281-0.052,0.42c-0.012,0.056-0.052,0.437-0.097,0.452l-2.492,0.793l-2.583-1.887L15.093,6.882z
		 M16.538,14.771l1.506,1.943c-0.222,0.594-0.583,1.134-1.052,1.562c-0.143,0.131-0.294,0.252-0.454,0.357
		c-0.044,0.031-0.108,0.054-0.146,0.091c-0.19,0.187,0.233,0.342,0.337,0.391c0.006,0.004,0.017,0.006,0.022,0.01
		c0.008,0.003,0.016,0.005,0.022,0.009c-0.559,0.143-1.143,0.219-1.745,0.219c-0.648,0-1.258-0.083-1.828-0.231
		c0.006-0.003,0.014-0.006,0.021-0.009c0.003-0.001,0.007-0.003,0.009-0.004c0.122-0.053,0.255-0.099,0.358-0.186
		c0.105-0.088,0.125-0.129,0.012-0.195c-0.116-0.068-0.229-0.143-0.335-0.225c-0.455-0.347-0.832-0.795-1.099-1.3
		c-0.03-0.056-0.241-0.407-0.207-0.455c0.008-0.01,1.387-1.985,1.387-1.985L16.538,14.771z M12.368,5.857
		c-0.009,0.021-0.018,0.041-0.024,0.059c-0.003,0.006-0.004,0.01-0.006,0.015c-0.006,0.017-0.012,0.032-0.017,0.045
		c-0.002,0.006-0.004,0.01-0.004,0.015c-0.005,0.012-0.008,0.021-0.011,0.029c-0.016,0.047-0.033,0.094-0.05,0.139
		c0.08,0.026,0.177-0.008,0.263-0.002c0.292,0.02,0.567,0.028,0.859,0.094c0.547,0.124,1.072,0.342,1.553,0.633l-0.008,2.743
		l-2.557,1.846l-2.501-0.746c-0.054-0.016-0.101-0.473-0.11-0.536C9.687,9.753,9.679,9.217,9.647,8.769
		c-0.02-0.293,0.141-0.761-0.1-0.747c-0.012,0-0.027,0.001-0.04,0.002C10.252,7.075,11.235,6.322,12.368,5.857z M8.052,12.983
		c0.027,0.026,0.052,0.05,0.074,0.071c0.074,0.067,0.142,0.157,0.243,0.183c0.063-0.165,0.072-0.357,0.131-0.527
		c0.065-0.187,0.146-0.369,0.238-0.542c0.122-0.228,0.266-0.446,0.429-0.646c0.092-0.113,0.19-0.221,0.293-0.323
		c0.045-0.044,0.303-0.33,0.358-0.314c0,0.001,2.47,0.737,2.47,0.737l0.963,2.992c0,0-1.403,2.006-1.403,2.007
		c-0.028,0.041-0.42-0.038-0.479-0.044c-0.151-0.021-0.302-0.048-0.451-0.082c-0.25-0.057-0.496-0.132-0.734-0.226
		c-0.179-0.071-0.353-0.153-0.521-0.245c-0.062-0.035-0.121-0.071-0.182-0.107c-0.089-0.053-0.153-0.148-0.247-0.19
		c-0.085-0.039-0.076-0.019-0.103,0.071c-0.026,0.086-0.032,0.175-0.037,0.266c-0.584-0.943-0.944-2.01-1.047-3.083
		C8.051,12.98,8.052,12.982,8.052,12.983z"/>
</g>
</svg>
