<?xml version="1.0" encoding="utf-8"?>
<!-- Generator: Adobe Illustrator 17.0.0, SVG Export Plug-In . SVG Version: 6.00 Build 0)  -->
<!DOCTYPE svg PUBLIC "-//W3C//DTD SVG 1.1//EN" "http://www.w3.org/Graphics/SVG/1.1/DTD/svg11.dtd">
<svg version="1.1" id="Camada_1" xmlns="http://www.w3.org/2000/svg" xmlns:xlink="http://www.w3.org/1999/xlink" x="0px" y="0px"
	 width="297.667px" height="84.333px" viewBox="0 0 297.667 84.333" enable-background="new 0 0 297.667 84.333"
	 xml:space="preserve">
<path fill-rule="evenodd" clip-rule="evenodd" fill="#939598" d="M76.759,19.085h5.004v12.829H69.215h-0.443l-0.607,0.053
	c-2.479,0.38-4.302,1.502-5.758,3.55l-0.387,0.647l-0.259,0.714c-1.355,4.433,1.144,8.978,5.705,9.844
	c1.373,0.27,2.982,0.17,4.29-0.348c5.91-2.346,4.994-7.8,5.004-13.25l5.004,0c-0.008,4.008,0.493,7.805-1.252,11.445
	c-3.531,7.31-13.693,9.5-19.596,4.051c-3.463-2.815-4.969-7.501-4.049-11.85l0.149-0.701l0.255-0.752
	c1.76-4.297,4.67-6.869,9.145-8.099c0.167-0.036,0.334-0.072,0.5-0.108c0.166-0.026,0.331-0.051,0.497-0.076
	c0.183-0.019,0.367-0.038,0.551-0.056c0.202-0.018,0.404-0.036,0.606-0.053c0.216,0,0.431,0,0.647,0h7.544V19.085L76.759,19.085
	L76.759,19.085z"/>
<polygon fill-rule="evenodd" clip-rule="evenodd" fill="#939598" points="116.776,33.111 121.673,33.111 121.673,51.666 
	116.776,51.666 116.776,33.111 116.776,33.111 "/>
<polygon fill-rule="evenodd" clip-rule="evenodd" fill="#939598" points="116.776,26.946 121.675,26.946 121.675,31.894 
	116.776,31.894 116.776,26.946 116.776,26.946 "/>
<path fill-rule="evenodd" clip-rule="evenodd" fill="#939598" d="M109.922,33.115h4.894c0,6.993,0,14.007,0,21.087v0.404
	c0,2.33-1.351,3.833-3.498,4.493h-0.348h-3.239v0.037H95.584v-4.934h12.092h0.055h0.294c1.69-0.114,1.815-0.331,1.889-2.449
	c0.032-0.933,0.008-1.905,0.008-2.422l-0.295,0.217l-0.297,0.203l-0.458,0.294c-4.133,2.386-8.441,2.167-12.548-0.201l-0.444-0.296
	l-0.699-0.553c-8.247-6.466-4.328-20.376,5.502-21.879l0.496-0.056l0.701-0.11h0.497h0.055h0.699h11.741v4.952H103.13h-0.754v-0.015
	l-0.349,0.068l-0.698,0.093l-0.811,0.203l-0.886,0.35c-4.738,2.887-5.546,9.133-1.102,12.696c0.222,0.18,0.453,0.318,0.698,0.46
	l0.443,0.239c0.528,0.262,1.13,0.483,1.709,0.606c3.999,0.849,7.383-1.951,8.392-5.742l0.055-0.459l0.055-0.404l0.039-0.497V33.115
	L109.922,33.115L109.922,33.115z"/>
<polygon fill-rule="evenodd" clip-rule="evenodd" fill="#939598" points="83.813,33.138 88.83,33.138 88.83,51.637 83.813,51.637 
	83.813,33.138 83.813,33.138 "/>
<polygon fill-rule="evenodd" clip-rule="evenodd" fill="#939598" points="83.813,31.86 85.045,26.912 90.063,26.912 88.83,31.86 
	83.813,31.86 83.813,31.86 "/>
<polygon fill-rule="evenodd" clip-rule="evenodd" fill="#939598" points="134.098,31.892 131.093,31.892 131.093,51.728 
	126.143,51.728 126.143,31.892 123.603,31.892 123.603,26.944 126.143,26.944 126.143,19.206 131.093,19.206 131.093,26.944 
	134.098,26.944 134.098,31.892 134.098,31.892 "/>
<path fill-rule="evenodd" clip-rule="evenodd" fill="#939598" d="M173.442,33.416l-0.348-0.179c-2.195-0.878-4.283-0.903-6.425,0.16
	c-4.525,2.377-5.257,7.635-2.299,11.485c3.557,4.622,11.299,2.476,12.807-2.945C178.132,38.382,176.446,35.257,173.442,33.416
	L173.442,33.416L173.442,33.416z M173.572,51.93l-0.406,0.109c-0.945,0.299-2.101,0.404-3.092,0.404h-0.497
	c-9.437,0-15.089-11.286-10.009-19.006l0.296-0.551l0.244-0.295c3.229-3.84,8.485-5.835,13.353-4.48
	c2.653,0.834,4.985,2.356,6.617,4.639C185.037,39.699,181.673,49.506,173.572,51.93L173.572,51.93L173.572,51.93z"/>
<path fill-rule="evenodd" clip-rule="evenodd" fill="#939598" d="M154.358,32.718c-3.563-5.306-9.023-5.8-13.015-3.299V19.201
	h-5.101v32.465h5.101V38.779c0.001,0,0.001,0,0.002,0l0.001-0.2l0.028-0.143l0.094-0.699l0.208-0.814
	c2.244-5.632,8.198-4.146,9.273,0.865c0.194,0.905,0.173,2.24,0.16,3.641l-0.094,10.219l4.795,0.017l0.045-9.894
	C155.87,38.68,155.942,35.679,154.358,32.718z"/>
<path fill-rule="evenodd" clip-rule="evenodd" fill="#A7A9AC" d="M189.95,18.995h-5.084v12.886h12.751h0.449l0.617,0.053
	c2.519,0.387,4.371,1.527,5.852,3.609l0.394,0.655l0.263,0.727c1.377,4.505-1.164,9.122-5.798,10.003
	c-1.395,0.274-3.029,0.174-4.358-0.352c-6.006-2.385-5.075-7.928-5.085-13.466h-5.084c0.008,4.073-0.527,7.944,1.272,11.629
	c3.588,7.35,13.913,9.524,19.911,4.118c3.52-2.86,5.05-7.623,4.116-12.042l-0.152-0.713l-0.258-0.764
	c-1.789-4.366-4.747-6.98-9.295-8.228c-0.168-0.038-0.338-0.075-0.506-0.111c-0.169-0.026-0.336-0.051-0.505-0.077
	c-0.186-0.02-0.373-0.039-0.559-0.056c-0.207-0.019-0.411-0.037-0.617-0.055c-0.219,0-0.438,0-0.657,0l-7.666,0V18.995
	L189.95,18.995L189.95,18.995z M277.866,51.886h-5.073v-18.77h5.073V51.886L277.866,51.886L277.866,51.886z M272.767,26.815h5.061
	v5.066h-5.061V26.815L272.767,26.815L272.767,26.815z M284.694,18.995h-4.807v32.891h4.913L284.694,18.995L284.694,18.995
	L284.694,18.995z M257.108,26.816h9.947v5.009h-5.758c-1.467,0-3.19,0-4.658,0c-1.007,0-1.149,1.084,0.036,1.212l3.807,0.416
	c5.78,0.629,10.542,2.655,10.489,9.261c-0.055,6.606-4.705,9.365-10.489,9.261c-5.782-0.104-10.143-3.724-10.461-8.636h5.276
	c0.409,2.157,2.434,3.607,5.185,3.607c2.759,0.201,5.333-1.096,5.436-3.962c0-8.212-15.202-0.759-15.202-10.617
	C250.716,28.022,254.252,26.76,257.108,26.816L257.108,26.816L257.108,26.816z M242.604,33.119h0.089v-0.012h4.991v18.779h-4.991
	V49.7c-0.356,0.154-0.737,0.358-1.145,0.623c-4.159,2.195-8.496,2-12.632-0.205l-0.447-0.299l-0.704-0.563
	c-5.554-4.396-5.623-12.176-2.098-17.303l-0.57-0.072c-4.007,0-7.142,0.551-7.371,5.678v1.491l0.038,12.896l-5.278,0.002
	l0.064-25.134h5.175v1.65c1.732-1.028,3.941-1.642,6.706-1.648c7.719,0,15.437,0.022,23.154-0.002v5.073h-11.818h-0.76v-0.016
	l-0.007,0.002c0,0.013,0,0.025,0,0.039l-0.201,0.001l-0.143,0.027l-0.702,0.095l-0.817,0.208l-0.891,0.353
	c-4.769,2.933-5.582,9.28-1.111,12.902c0.225,0.181,0.457,0.324,0.704,0.468l0.447,0.242c0.531,0.266,1.137,0.491,1.72,0.615
	c4.024,0.863,7.431-1.982,8.448-5.834l0.054-0.466l0.055-0.411l0.04-0.505V33.119L242.604,33.119L242.604,33.119z"/>
<path fill-rule="evenodd" clip-rule="evenodd" fill="#939598" d="M292.937,23.528h0.021v-0.003h1.163V27.9h-1.163v-0.509
	c-0.083,0.036-0.172,0.083-0.267,0.145c-0.969,0.511-1.979,0.466-2.942-0.048l-0.104-0.07l-0.164-0.131
	c-1.293-1.024-1.31-2.836-0.489-4.03c0.504-0.685,1.388-1.195,2.251-1.195c0.952,0.001,1.904,0.001,2.855-0.002v1.182h-2.753h-0.176
	v-0.004l-0.001,0.001c0,0.003-0.001,0.006-0.001,0.009h-0.047l-0.034,0.006l-0.163,0.022l-0.191,0.048l-0.207,0.082
	c-1.111,0.683-1.3,2.161-0.259,3.005c0.052,0.042,0.106,0.075,0.164,0.109l0.104,0.056c0.124,0.062,0.265,0.115,0.401,0.144
	c0.937,0.201,1.731-0.462,1.968-1.359l0.013-0.109l0.013-0.096l0.009-0.118V23.528L292.937,23.528L292.937,23.528z"/>
<path fill-rule="evenodd" clip-rule="evenodd" fill="#939598" d="M291.682,20.073h-0.003h-0.005c-1.383,0.001-2.64,0.567-3.55,1.476
	c-0.911,0.91-1.476,2.168-1.476,3.553v0.002v0.005c0.001,1.384,0.566,2.641,1.476,3.551c0.91,0.91,2.168,1.475,3.553,1.476l0.002,0
	h0.006c1.383-0.001,2.64-0.566,3.55-1.476c0.911-0.91,1.475-2.168,1.475-3.553l0.001-0.002v-0.005
	c-0.001-1.384-0.567-2.641-1.477-3.551C294.324,20.638,293.067,20.073,291.682,20.073L291.682,20.073L291.682,20.073z
	 M291.679,19.117h0.003c1.647,0.001,3.144,0.674,4.229,1.759c1.083,1.083,1.755,2.578,1.756,4.223v0.005v0.002
	c-0.001,1.647-0.674,3.145-1.76,4.229c-1.083,1.083-2.578,1.754-4.223,1.756h-0.006h-0.002c-1.647-0.001-3.145-0.674-4.23-1.759
	c-1.083-1.083-1.755-2.578-1.756-4.223l0.001-0.005v-0.003c0-1.647,0.674-3.144,1.759-4.229c1.083-1.083,2.579-1.754,4.223-1.756
	H291.679L291.679,19.117L291.679,19.117z"/>
<path fill-rule="evenodd" clip-rule="evenodd" fill="#939598" d="M29.416,30.177c1.868-3.664,3.011-8.052,6.084-10.434
	c2.307-1.789,5.057-2.448,7.174-0.432c2.117,2.016,2.014,5.242-0.007,7.349c-1.449,1.51-3.318,2.37-5.656,3.579
	c-0.845,0.437-0.812,0.357-1.599,0.836c1.829-0.856,2.994-1.231,5.066-1.996c6.527-2.411,6.273-12.001-1.773-11.451
	C33.538,17.981,31.218,24.545,29.416,30.177L29.416,30.177L29.416,30.177z M12.605,59.317C7.39,59.73,3.85,53.587,7.426,49.283
	c-2.043,4.076,1.196,8.687,5.593,8.338c2.519-0.335,5.037-2.171,6.068-5.193c0.566-1.659,1.2-3.502,1.866-5.344
	c-0.175,0.366-0.343,0.736-0.507,1.108c-1.177,2.689-2.212,5.202-3.683,6.929c-1.888,2.216-5.23,2.477-7.431,0.593
	c-2.202-1.885-2.46-5.226-0.577-7.437c1.567-1.84,3.937-3.238,6.454-4.732c4.033-2.392,9.443-5.216,11.78-10.204
	c0.665-1.418,1.203-2.95,1.744-4.418c2.266-6.158,4.708-11.414,9.821-12.253c3.755-0.617,7.185,1.997,7.275,6.143
	c0.062,2.933-1.504,5.458-5.285,7.228c-12.625,5.909-16.37,9.724-20.679,23.402C18.749,56.982,15.672,59.074,12.605,59.317
	L12.605,59.317L12.605,59.317z"/>
<path fill-rule="evenodd" clip-rule="evenodd" fill="#A7A9AC" d="M35.653,59.92c2.243-4.336-4.685-14.895-8.467-17.635
	c-1.999-1.448-4.411-2.013-6.621-2.115C15.7,39.945,7.639,45.658,1.396,38.322c-2.467-2.898-1.574-7.63,1.972-9.781
	c3.356-2.031,7.087,0.179,10.227,2.462c0.511,0.291,1.026,0.59,1.552,0.889c0.623,0.354,7.905,4.569,6.465,2.54
	c-4.854-6.837-9.482-12.933-6.571-17.752c2.384-4.343,8.636-4.009,11.652-0.475c3.5,4.102,0.301,9.467,0.444,14.939
	c-0.948-2.177,2.471-9.656-1.173-14.058c-2.64-3.185-7.767-2.71-9.731,0.87c-2.01,3.668,0.831,8.3,4.852,13.52
	c1.156,1.5,5.074,5.952,10.669,5.23c8.562-1.105,16.022-2.772,18.81,2.122c2.805,4.083-0.307,9.516-4.82,10.618
	c-5.238,1.279-8.589-3.992-13.54-6.327c2.37,0.133,7.51,6.553,13.081,5.28c4.033-0.924,5.916-5.717,3.603-9.081
	c-2.371-3.446-8.789-2.646-15.271-1.463c1.21,0.066,3.397-0.222,4.514-0.293c2.655-0.169,5.137-0.385,7.18,0.16
	c2.745,0.731,4.409,3.646,3.71,6.479c-0.699,2.832-3.515,4.54-6.263,3.81c-1.969-0.524-3.898-1.923-6.034-3.369
	c-21.089-14.269,3.954,5.756-0.24,15.709c-1.478,3.508-5.872,5.303-9.388,3.105c-4.152-2.601-2.506-8.078-2.309-12.027
	c0.343-6.832,0.438-6.657,0.61-3.794c0.203,3.385-0.524,11.769,2.067,14.179C29.478,63.685,33.862,63.381,35.653,59.92L35.653,59.92
	L35.653,59.92z M7.158,39.248c-2.635-0.532-5.474-3.398-5.177-6.086c-0.453,1.578-0.263,3.297,0.689,4.612
	c3.29,4.545,13.996,1.298,19.024,1.047C16.516,38.153,12.111,40.249,7.158,39.248L7.158,39.248L7.158,39.248z"/>
<path fill-rule="evenodd" clip-rule="evenodd" fill="#939598" d="M61.017,64.321l-0.96,0.854c-0.337-0.471-0.681-0.709-1.031-0.709
	c-0.169,0-0.309,0.046-0.418,0.139c-0.108,0.091-0.162,0.195-0.162,0.309c0,0.116,0.038,0.225,0.116,0.328
	c0.106,0.136,0.422,0.43,0.952,0.882c0.494,0.417,0.795,0.68,0.9,0.789c0.263,0.268,0.45,0.524,0.559,0.768
	c0.109,0.246,0.165,0.512,0.165,0.802c0,0.563-0.193,1.028-0.58,1.396c-0.386,0.367-0.892,0.55-1.512,0.55
	c-0.486,0-0.909-0.12-1.268-0.359c-0.361-0.24-0.67-0.617-0.927-1.13l1.091-0.663c0.328,0.607,0.705,0.911,1.131,0.911
	c0.223,0,0.41-0.066,0.562-0.196c0.152-0.131,0.227-0.282,0.227-0.453c0-0.156-0.057-0.311-0.171-0.467
	c-0.114-0.156-0.366-0.393-0.755-0.714c-0.743-0.611-1.222-1.083-1.44-1.414c-0.216-0.331-0.324-0.661-0.324-0.991
	c0-0.477,0.18-0.885,0.542-1.226c0.359-0.341,0.805-0.512,1.333-0.512c0.34,0,0.664,0.08,0.972,0.238
	C60.325,63.611,60.657,63.901,61.017,64.321L61.017,64.321L61.017,64.321z"/>
<path fill-rule="evenodd" clip-rule="evenodd" fill="#939598" d="M71.421,64.494c-0.632,0-1.163,0.22-1.592,0.663
	c-0.431,0.441-0.646,1.004-0.646,1.684c0,0.76,0.271,1.361,0.812,1.803c0.421,0.346,0.902,0.518,1.448,0.518
	c0.616,0,1.14-0.223,1.572-0.672c0.434-0.449,0.651-1.001,0.651-1.657c0-0.655-0.218-1.208-0.655-1.661
	C72.575,64.72,72.045,64.494,71.421,64.494L71.421,64.494L71.421,64.494z M71.434,63.214c0.966,0,1.796,0.352,2.489,1.055
	c0.695,0.704,1.042,1.562,1.042,2.572c0,1.003-0.342,1.853-1.028,2.546c-0.685,0.695-1.517,1.04-2.494,1.04
	c-1.023,0-1.874-0.355-2.552-1.069c-0.678-0.712-1.017-1.559-1.017-2.54c0-0.656,0.158-1.26,0.473-1.812
	c0.315-0.551,0.749-0.988,1.302-1.31C70.202,63.375,70.797,63.214,71.434,63.214L71.434,63.214L71.434,63.214z"/>
<polygon fill-rule="evenodd" clip-rule="evenodd" fill="#939598" points="82.02,63.386 83.32,63.386 83.32,69.01 85.212,69.01 
	85.212,70.256 82.02,70.256 82.02,63.386 82.02,63.386 "/>
<path fill-rule="evenodd" clip-rule="evenodd" fill="#939598" d="M91.984,63.386h1.303v4.445c0,0.385,0.034,0.655,0.099,0.813
	c0.066,0.16,0.176,0.286,0.329,0.381c0.154,0.096,0.339,0.142,0.555,0.142c0.23,0,0.426-0.053,0.592-0.158
	c0.164-0.107,0.28-0.241,0.343-0.405c0.064-0.163,0.095-0.475,0.095-0.936v-4.283h1.303v4.096c0,0.691-0.04,1.17-0.115,1.438
	c-0.078,0.268-0.225,0.526-0.443,0.775c-0.219,0.25-0.47,0.434-0.754,0.555c-0.285,0.12-0.616,0.178-0.993,0.178
	c-0.495,0-0.926-0.113-1.292-0.342c-0.367-0.228-0.629-0.515-0.787-0.859c-0.157-0.344-0.236-0.926-0.236-1.744L91.984,63.386
	L91.984,63.386L91.984,63.386z"/>
<path fill-rule="evenodd" clip-rule="evenodd" fill="#939598" d="M106.472,70.181h0.783l-0.055,0.215
	c0.206,0.046,0.369,0.137,0.489,0.273c0.119,0.135,0.178,0.283,0.178,0.446c0,0.252-0.104,0.469-0.315,0.649
	c-0.211,0.182-0.502,0.271-0.878,0.271c-0.302,0-0.646-0.071-1.029-0.215l0.168-0.6c0.222,0.07,0.44,0.107,0.654,0.107
	c0.157,0,0.274-0.03,0.351-0.091c0.078-0.061,0.118-0.142,0.118-0.24c0-0.081-0.03-0.145-0.089-0.191
	c-0.059-0.048-0.152-0.07-0.279-0.07l-0.26,0.01L106.472,70.181L106.472,70.181L106.472,70.181z M110.215,64.596l-0.909,0.874
	c-0.62-0.656-1.315-0.985-2.088-0.985c-0.653,0-1.204,0.225-1.65,0.673c-0.447,0.448-0.67,1.001-0.67,1.658
	c0.001,0.457,0.098,0.863,0.297,1.217c0.198,0.355,0.478,0.635,0.839,0.837c0.363,0.203,0.765,0.303,1.207,0.303
	c0.377,0,0.722-0.07,1.035-0.212c0.313-0.141,0.656-0.398,1.03-0.773l0.883,0.924c-0.505,0.496-0.983,0.839-1.43,1.029
	c-0.448,0.191-0.96,0.287-1.536,0.287c-1.06,0-1.929-0.337-2.606-1.015c-0.674-0.678-1.014-1.544-1.014-2.603
	c0-0.686,0.154-1.294,0.462-1.827c0.308-0.533,0.748-0.96,1.323-1.283c0.574-0.324,1.191-0.486,1.853-0.486
	c0.564,0,1.105,0.12,1.626,0.361C109.388,63.814,109.838,64.155,110.215,64.596L110.215,64.596L110.215,64.596z"/>
<path fill-rule="evenodd" clip-rule="evenodd" fill="#939598" d="M118.968,62.836l-0.51-0.771c0.397-0.307,0.797-0.462,1.202-0.462
	c0.151,0,0.411,0.054,0.779,0.16c0.25,0.068,0.45,0.102,0.599,0.102c0.26,0,0.529-0.08,0.806-0.242l0.483,0.729
	c-0.39,0.336-0.767,0.503-1.132,0.503c-0.194,0-0.427-0.042-0.7-0.126c-0.223-0.066-0.364-0.104-0.422-0.117
	c-0.081-0.012-0.176-0.019-0.287-0.019C119.512,62.592,119.24,62.674,118.968,62.836L118.968,62.836L118.968,62.836z
	 M120.394,64.494c-0.632,0-1.163,0.22-1.592,0.663c-0.431,0.441-0.646,1.004-0.646,1.684c0,0.76,0.271,1.361,0.812,1.803
	c0.422,0.346,0.903,0.518,1.448,0.518c0.616,0,1.14-0.223,1.572-0.672c0.434-0.449,0.651-1.001,0.651-1.657
	c0-0.655-0.218-1.208-0.655-1.661C121.548,64.72,121.017,64.494,120.394,64.494L120.394,64.494L120.394,64.494z M120.406,63.214
	c0.967,0,1.796,0.352,2.49,1.055c0.695,0.704,1.042,1.562,1.042,2.572c0,1.003-0.342,1.853-1.028,2.546
	c-0.685,0.695-1.517,1.04-2.494,1.04c-1.023,0-1.873-0.355-2.551-1.069c-0.678-0.712-1.017-1.559-1.017-2.54
	c0-0.656,0.158-1.26,0.474-1.812c0.315-0.551,0.749-0.988,1.302-1.31C119.174,63.375,119.769,63.214,120.406,63.214L120.406,63.214
	L120.406,63.214z"/>
<polygon fill-rule="evenodd" clip-rule="evenodd" fill="#939598" points="130.996,63.386 134.722,63.386 134.722,64.666 
	132.287,64.666 132.287,65.908 134.722,65.908 134.722,67.166 132.287,67.166 132.287,68.972 134.722,68.972 134.722,70.256 
	130.996,70.256 130.996,63.386 130.996,63.386 "/>
<path fill-rule="evenodd" clip-rule="evenodd" fill="#939598" d="M145.34,64.321l-0.96,0.854c-0.338-0.471-0.681-0.709-1.032-0.709
	c-0.169,0-0.308,0.046-0.418,0.139c-0.108,0.091-0.162,0.195-0.162,0.309c0,0.116,0.038,0.225,0.115,0.328
	c0.106,0.136,0.422,0.43,0.952,0.882c0.494,0.417,0.795,0.68,0.9,0.789c0.263,0.268,0.449,0.524,0.559,0.768
	c0.109,0.246,0.165,0.512,0.165,0.802c0,0.563-0.194,1.028-0.58,1.396c-0.387,0.367-0.892,0.55-1.512,0.55
	c-0.487,0-0.909-0.12-1.269-0.359c-0.361-0.24-0.67-0.617-0.926-1.13l1.09-0.663c0.328,0.607,0.705,0.911,1.131,0.911
	c0.223,0,0.41-0.066,0.562-0.196c0.152-0.131,0.226-0.282,0.226-0.453c0.001-0.156-0.057-0.311-0.171-0.467
	c-0.114-0.156-0.366-0.393-0.755-0.714c-0.743-0.611-1.222-1.083-1.439-1.414c-0.215-0.331-0.325-0.661-0.325-0.991
	c0-0.477,0.18-0.885,0.542-1.226c0.36-0.341,0.804-0.512,1.333-0.512c0.341,0,0.664,0.08,0.972,0.238
	C144.647,63.611,144.979,63.901,145.34,64.321L145.34,64.321L145.34,64.321z"/>
<polygon fill-rule="evenodd" clip-rule="evenodd" fill="#939598" points="163.173,63.386 166.899,63.386 166.899,64.666 
	164.464,64.666 164.464,65.908 166.899,65.908 166.899,67.166 164.464,67.166 164.464,68.972 166.899,68.972 166.899,70.256 
	163.173,70.256 163.173,63.386 163.173,63.386 "/>
<polygon fill-rule="evenodd" clip-rule="evenodd" fill="#939598" points="174.598,63.386 175.869,63.386 177.447,68.177 
	179.048,63.386 180.3,63.386 181.45,70.256 180.198,70.256 179.464,65.918 178.012,70.256 176.867,70.256 175.434,65.918 
	174.686,70.256 173.42,70.256 174.598,63.386 174.598,63.386 "/>
<path fill-rule="evenodd" clip-rule="evenodd" fill="#939598" d="M202.532,64.321l-0.96,0.854c-0.338-0.471-0.681-0.709-1.031-0.709
	c-0.169,0-0.309,0.046-0.418,0.139c-0.108,0.091-0.162,0.195-0.162,0.309c0,0.116,0.038,0.225,0.115,0.328
	c0.106,0.136,0.423,0.43,0.952,0.882c0.494,0.417,0.795,0.68,0.899,0.789c0.263,0.268,0.45,0.524,0.56,0.768
	c0.11,0.246,0.165,0.512,0.165,0.802c0.001,0.563-0.194,1.028-0.579,1.396c-0.387,0.367-0.893,0.55-1.514,0.55
	c-0.485,0-0.909-0.12-1.268-0.359c-0.361-0.24-0.67-0.617-0.926-1.13l1.09-0.663c0.329,0.607,0.705,0.911,1.131,0.911
	c0.224,0,0.41-0.066,0.562-0.196c0.152-0.131,0.226-0.282,0.226-0.453c0-0.156-0.057-0.311-0.171-0.467
	c-0.114-0.156-0.366-0.393-0.755-0.714c-0.742-0.611-1.223-1.083-1.439-1.414c-0.215-0.331-0.325-0.661-0.325-0.991
	c0-0.477,0.181-0.885,0.541-1.226c0.36-0.341,0.805-0.512,1.333-0.512c0.341,0,0.665,0.08,0.973,0.238
	C201.841,63.611,202.173,63.901,202.532,64.321L202.532,64.321L202.532,64.321z"/>
<path fill-rule="evenodd" clip-rule="evenodd" fill="#939598" d="M212.937,64.494c-0.632,0-1.163,0.22-1.592,0.663
	c-0.431,0.441-0.646,1.004-0.646,1.684c0,0.76,0.27,1.361,0.812,1.803c0.421,0.346,0.903,0.518,1.447,0.518
	c0.617,0,1.141-0.223,1.573-0.672c0.434-0.449,0.65-1.001,0.65-1.657c0-0.655-0.218-1.208-0.655-1.661
	C214.091,64.72,213.56,64.494,212.937,64.494L212.937,64.494L212.937,64.494z M212.949,63.214c0.966,0,1.796,0.352,2.489,1.055
	c0.695,0.704,1.042,1.562,1.042,2.572c0,1.003-0.342,1.853-1.028,2.546c-0.685,0.695-1.517,1.04-2.494,1.04
	c-1.023,0-1.873-0.355-2.55-1.069c-0.678-0.712-1.018-1.559-1.018-2.54c0-0.656,0.159-1.26,0.474-1.812
	c0.315-0.551,0.749-0.988,1.302-1.31C211.718,63.375,212.313,63.214,212.949,63.214L212.949,63.214L212.949,63.214z"/>
<polygon fill-rule="evenodd" clip-rule="evenodd" fill="#939598" points="223.553,63.386 226.941,63.386 226.941,64.661 
	224.838,64.661 224.838,65.908 226.941,65.908 226.941,67.166 224.838,67.166 224.838,70.256 223.553,70.256 223.553,63.386 
	223.553,63.386 "/>
<polygon fill-rule="evenodd" clip-rule="evenodd" fill="#939598" points="233.253,63.386 237.024,63.386 237.024,64.676 
	235.782,64.676 235.782,70.256 234.464,70.256 234.464,64.676 233.253,64.676 233.253,63.386 233.253,63.386 "/>
<polygon fill-rule="evenodd" clip-rule="evenodd" fill="#939598" points="243.226,63.386 244.508,63.386 245.491,67.771 
	246.71,63.386 247.792,63.386 249.025,67.771 250,63.386 251.281,63.386 249.745,70.256 248.496,70.256 247.239,65.816 
	246.006,70.256 244.771,70.256 243.226,63.386 243.226,63.386 "/>
<path fill-rule="evenodd" clip-rule="evenodd" fill="#939598" d="M260.873,65.208l-0.911,2.357h1.816L260.873,65.208L260.873,65.208
	L260.873,65.208z M260.205,63.386h1.318l2.626,6.87h-1.351l-0.534-1.415h-2.782l-0.557,1.415h-1.349L260.205,63.386L260.205,63.386
	L260.205,63.386z"/>
<path fill-rule="evenodd" clip-rule="evenodd" fill="#939598" d="M272.371,66.072h0.409c0.415,0,0.699-0.054,0.857-0.164
	c0.155-0.109,0.233-0.288,0.233-0.54c0-0.15-0.038-0.281-0.116-0.391c-0.077-0.11-0.18-0.189-0.31-0.237
	c-0.13-0.05-0.368-0.074-0.715-0.074h-0.357V66.072L272.371,66.072L272.371,66.072z M271.072,63.386h1.379
	c0.755,0,1.291,0.069,1.612,0.204c0.32,0.135,0.578,0.36,0.773,0.674c0.194,0.314,0.292,0.687,0.292,1.115
	c0,0.453-0.106,0.829-0.322,1.134c-0.215,0.303-0.541,0.532-0.973,0.689l1.616,3.053h-1.421l-1.536-2.909h-0.12v2.909h-1.299V63.386
	L271.072,63.386L271.072,63.386z"/>
<polygon fill-rule="evenodd" clip-rule="evenodd" fill="#939598" points="282.329,63.386 286.056,63.386 286.056,64.666 
	283.62,64.666 283.62,65.908 286.056,65.908 286.056,67.166 283.62,67.166 283.62,68.972 286.056,68.972 286.056,70.256 
	282.329,70.256 282.329,63.386 282.329,63.386 "/>
</svg>
