<?xml version="1.0" encoding="utf-8"?>
<!-- Generator: Adobe Illustrator 17.0.0, SVG Export Plug-In . SVG Version: 6.00 Build 0)  -->
<!DOCTYPE svg PUBLIC "-//W3C//DTD SVG 1.1//EN" "http://www.w3.org/Graphics/SVG/1.1/DTD/svg11.dtd">
<svg version="1.1" id="Camada_1" xmlns="http://www.w3.org/2000/svg" xmlns:xlink="http://www.w3.org/1999/xlink" x="0px" y="0px"
	 width="283.006px" height="72.662px" viewBox="0 0 283.006 72.662" enable-background="new 0 0 283.006 72.662"
	 xml:space="preserve">
<rect x="54.087" y="49.603" fill="#FFFFFF" width="138.196" height="3.132"/>
<g>
	<g>
		<path fill="#FBAA19" d="M0,4.686h10.834c6.986,0,12.174,0.865,15.568,2.595c3.394,1.733,6.19,4.546,8.388,8.444
			c2.196,3.898,3.296,8.451,3.296,13.655c0,3.701-0.615,7.104-1.844,10.208c-1.229,3.102-2.925,5.677-5.091,7.724
			s-4.511,3.463-7.035,4.248c-2.524,0.783-6.897,1.175-13.118,1.175H0V4.686z M9.08,13.505v30.313h4.248
			c4.181,0,7.213-0.479,9.097-1.44c1.882-0.959,3.423-2.571,4.622-4.839c1.197-2.268,1.795-5.057,1.795-8.37
			c0-5.102-1.427-9.059-4.279-11.871c-2.569-2.529-6.696-3.793-12.38-3.793H9.08z"/>
	</g>
</g>
<g>
	<g>
		<path fill="#FBAA19" d="M38.086,0l6.553,0v3.606c0,2.271-0.282,4.23-0.845,5.881c-0.563,1.651-1.513,3.346-2.847,5.075
			l-2.548-2.002c0.641-0.936,1.114-1.742,1.417-2.418c0.303-0.676,0.602-1.578,0.897-2.704h-2.626V0z"/>
	</g>
</g>
<path fill="#FFFFFF" d="M48.894,5.801h17.318v5.879h-5.709v25.455h-6.049V11.681h-5.56V5.801z"/>
<path fill="#FFFFFF" d="M79.86,5.801h6.049l12.051,31.334h-6.199l-2.451-6.454H76.525l-2.549,6.454h-6.199L79.86,5.801z
	 M82.922,14.109l-4.203,10.757h8.382L82.922,14.109z"/>
<path fill="#FFFFFF" d="M102.573,5.801h5.964v25.646h8.691v5.687h-14.655V5.801z"/>
<path fill="#FFFFFF" d="M121.786,5.801h17.105v5.836h-11.183v5.666h11.183v5.73h-11.183v8.243h11.183v5.858h-17.105V5.801z"/>
<path fill="#FFFFFF" d="M144.472,5.801h5.721L163.6,26.421V5.801h5.964v31.334h-5.737L150.436,16.58v20.555h-5.964V5.801z"/>
<path fill="#FFFFFF" d="M173.633,5.801h17.318v5.879h-5.709v25.455h-6.049V11.681h-5.56V5.801z"/>
<g>
	<path fill="#FFFFFF" d="M213.582,44.276c0.015-0.893-0.362-1.307-1.224-1.544c-1.865-0.514-3.736-0.417-5.601-0.015
		c-0.926,0.2-1.347,0.735-1.277,1.724c0.116,1.633,0.677,3.055,2.196,3.956c-0.236,1.425-0.473,2.86-0.718,4.339
		c1.803,0,3.467,0,5.284,0c-0.259-1.36-0.511-2.609-0.724-3.866c-0.035-0.207,0.021-0.55,0.162-0.648
		C213.061,47.256,213.555,45.868,213.582,44.276z"/>
	<path fill="#FFFFFF" d="M225.245,20.361c-0.732-0.549-0.964-1.137-1.074-1.934c-0.281-2.036-0.688-4.047-1.458-5.963
		c-1.238-3.08-3.52-5.1-6.553-6.314c-2.58-1.032-5.178-2.019-7.762-3.041c-0.847-0.335-1.675-0.716-2.674-1.146
		c-0.066,0.931-0.124,1.755-0.197,2.794c-0.753-0.417-1.439-0.796-2.245-1.243c0,0.669,0,1.276,0,1.926
		c-0.42,0.141-0.762,0.256-1.105,0.37c-3.641,1.212-6.036,3.657-6.879,7.395c-0.448,1.989-0.518,4.065-0.73,6.105
		c-0.037,0.354-0.062,0.607-0.424,0.811c-1.09,0.612-1.644,1.595-1.803,2.823c-0.25,1.922,0.361,3.627,1.316,5.239
		c0.744,1.255,1.73,2.257,3.075,2.889c0.27,0.127,0.549,0.379,0.673,0.644c0.954,2.042,2.208,3.857,3.867,5.395
		c4.4,4.077,10.752,4.467,15.608,0.943c2.216-1.608,3.751-3.747,4.872-6.216c0.123-0.27,0.289-0.612,0.527-0.723
		c2.536-1.183,3.733-3.358,4.366-5.911C227.103,23.355,226.853,21.567,225.245,20.361z M221.973,28.576
		c-0.208,0.159-0.461,0.35-0.701,0.361c-0.881,0.039-1.161,0.605-1.443,1.325c-1.236,3.153-3.203,5.706-6.398,7.058
		c-1.158,0.491-2.446,0.676-3.123,0.855c-4.26-0.126-7.089-1.809-9.178-4.715c-0.823-1.145-1.387-2.481-2.029-3.75
		c-0.174-0.344-0.298-0.596-0.743-0.643c-2.343-0.251-4.135-3.822-3.678-5.918c0.166-0.761,0.753-1.233,1.552-1.296
		c1.002-0.079,1.429,0.151,1.747,1.029c0.218,0.603,0.363,1.301,1.184,1.229c0.83-0.072,0.877-0.792,0.928-1.424
		c0.131-1.615,0.341-3.233,0.332-4.849c-0.015-2.392,1.349-3.656,3.371-4.357c3.685-1.277,7.414-1.251,11.11-0.035
		c0.786,0.259,1.521,0.734,2.211,1.209c0.799,0.549,1.173,1.388,1.247,2.357c0.145,1.883,0.291,3.765,0.445,5.647
		c0.021,0.264,0.014,0.572,0.149,0.773c0.183,0.272,0.474,0.61,0.751,0.643c0.281,0.033,0.626-0.239,0.896-0.44
		c0.134-0.1,0.167-0.339,0.236-0.519c0.43-1.123,0.991-1.444,2.181-1.248c0.879,0.145,1.473,0.848,1.417,1.906
		C224.338,25.724,223.557,27.37,221.973,28.576z"/>
</g>
<g>
	<path fill="#FBAA19" d="M235.427,52.735c-1.546-3.162-3.754-5.793-6.939-7.689c-2.973-1.77-5.912-3.598-8.869-5.396
		c-0.072-0.044-0.174-0.041-0.285-0.064c-1.258,4.37-2.506,8.709-3.784,13.149H235.427z"/>
	<path fill="#FBAA19" d="M203.808,52.735c-1.308-4.54-2.573-8.93-3.842-13.333c-0.12,0.032-0.196,0.035-0.252,0.07
		c-3.359,2.112-6.723,4.216-10.072,6.344c-2.724,1.732-4.798,4.027-6.18,6.918H203.808z"/>
</g>
<g>
	<path fill="#4D4D4F" d="M169.165,63.794c0.142-0.017,0.267,0.038,0.374,0.163c0.107,0.126,0.229,0.368,0.367,0.73
		c0.036,0.11,0.128,0.279,0.274,0.508c0.146,0.229,0.32,0.486,0.524,0.771c0.204,0.286,0.424,0.586,0.661,0.903
		c0.238,0.317,0.467,0.621,0.689,0.909c0.222,0.289,0.424,0.549,0.606,0.779s0.321,0.4,0.418,0.509
		c0.097,0.115,0.177,0.195,0.238,0.237c0.062,0.044,0.117,0.063,0.164,0.059c0.083-0.01,0.141-0.072,0.172-0.187
		c0.032-0.114,0.069-0.243,0.113-0.387c0.021-0.074,0.058-0.222,0.11-0.443c0.052-0.222,0.111-0.487,0.178-0.794
		s0.14-0.637,0.219-0.991c0.079-0.354,0.154-0.697,0.228-1.027c0.072-0.332,0.141-0.637,0.205-0.914
		c0.063-0.277,0.116-0.493,0.158-0.647c0.12-0.469,0.255-0.826,0.403-1.07c0.148-0.246,0.331-0.381,0.551-0.406
		c0.076-0.009,0.147,0.028,0.214,0.106s0.108,0.196,0.126,0.35c0.012,0.106,0.009,0.229-0.012,0.369
		c-0.02,0.14-0.063,0.292-0.127,0.455c-0.046,0.125-0.099,0.304-0.159,0.536c-0.06,0.23-0.124,0.494-0.191,0.79
		s-0.135,0.607-0.203,0.935c-0.066,0.328-0.133,0.649-0.198,0.963c-0.066,0.313-0.13,0.604-0.191,0.875
		c-0.062,0.272-0.115,0.496-0.16,0.676c-0.046,0.172-0.101,0.377-0.163,0.611c-0.063,0.235-0.122,0.472-0.179,0.712
		c-0.057,0.241-0.101,0.472-0.132,0.694c-0.031,0.222-0.038,0.407-0.021,0.556c0.018,0.153-0.006,0.318-0.069,0.492
		c-0.063,0.176-0.144,0.34-0.24,0.491s-0.196,0.28-0.302,0.386c-0.104,0.104-0.187,0.16-0.245,0.167
		c-0.06,0.007-0.108-0.011-0.146-0.056c-0.039-0.044-0.071-0.106-0.099-0.19s-0.05-0.181-0.065-0.294
		c-0.017-0.112-0.031-0.232-0.047-0.363c-0.014-0.124-0.04-0.242-0.077-0.358s-0.083-0.23-0.138-0.344
		c-0.056-0.113-0.12-0.234-0.195-0.36c-0.074-0.126-0.155-0.262-0.244-0.407c-0.06-0.095-0.168-0.253-0.328-0.474
		c-0.161-0.222-0.346-0.476-0.556-0.764c-0.21-0.287-0.436-0.593-0.677-0.919c-0.242-0.327-0.475-0.643-0.698-0.949
		s-0.427-0.589-0.609-0.846c-0.183-0.258-0.322-0.466-0.418-0.623c-0.095-0.15-0.171-0.317-0.229-0.503s-0.097-0.367-0.117-0.544
		c-0.025-0.225-0.019-0.423,0.021-0.595C168.986,63.899,169.059,63.806,169.165,63.794z"/>
	<path fill="#4D4D4F" d="M184.366,62.024c0.354-0.041,0.676-0.021,0.964,0.056c0.288,0.078,0.536,0.201,0.748,0.367
		c0.211,0.168,0.38,0.374,0.507,0.616c0.127,0.243,0.207,0.51,0.24,0.799c0.073,0.639,0.014,1.265-0.18,1.877
		c-0.192,0.612-0.473,1.192-0.842,1.742c-0.368,0.548-0.798,1.055-1.289,1.519c-0.492,0.465-0.999,0.87-1.522,1.219
		c-0.523,0.347-1.041,0.628-1.553,0.843c-0.511,0.215-0.965,0.346-1.361,0.392c-0.366,0.042-0.691,0.04-0.976-0.006
		c-0.283-0.044-0.525-0.141-0.726-0.288c-0.199-0.148-0.358-0.348-0.478-0.603c-0.119-0.252-0.2-0.567-0.244-0.946
		c-0.064-0.561-0.018-1.13,0.141-1.705s0.396-1.134,0.715-1.674s0.703-1.052,1.153-1.535s0.935-0.911,1.452-1.285
		c0.517-0.374,1.053-0.684,1.609-0.927C183.281,62.24,183.828,62.085,184.366,62.024z M184.584,63.141
		c-0.225,0.026-0.438,0.092-0.643,0.195c-0.203,0.104-0.397,0.229-0.581,0.376c-0.184,0.147-0.357,0.31-0.52,0.488
		c-0.162,0.177-0.316,0.352-0.465,0.525c-0.105,0.119-0.222,0.208-0.347,0.264c-0.126,0.057-0.257,0.108-0.396,0.154
		s-0.278,0.098-0.418,0.156c-0.141,0.058-0.278,0.147-0.414,0.271c-0.32,0.29-0.615,0.606-0.883,0.952
		c-0.27,0.346-0.496,0.7-0.682,1.067c-0.187,0.365-0.321,0.732-0.408,1.099s-0.11,0.717-0.071,1.055
		c0.038,0.337,0.166,0.589,0.383,0.756s0.494,0.23,0.831,0.192c0.343-0.04,0.736-0.165,1.18-0.375
		c0.443-0.209,0.895-0.477,1.354-0.803c0.459-0.325,0.909-0.698,1.349-1.121c0.439-0.422,0.824-0.866,1.154-1.329
		s0.586-0.935,0.768-1.414c0.182-0.479,0.246-0.943,0.194-1.393c-0.026-0.23-0.083-0.423-0.17-0.578s-0.193-0.274-0.32-0.358
		c-0.126-0.084-0.266-0.141-0.418-0.168C184.91,63.125,184.75,63.122,184.584,63.141z"/>
	<path fill="#4D4D4F" d="M194.566,60.301c0.251-0.113,0.453-0.178,0.607-0.195c0.146-0.018,0.27,0.006,0.367,0.069
		c0.097,0.063,0.153,0.163,0.169,0.3c0.017,0.147-0.026,0.302-0.131,0.465c-0.104,0.161-0.244,0.325-0.42,0.492
		c-0.175,0.168-0.376,0.332-0.603,0.497c-0.228,0.164-0.455,0.315-0.685,0.457c-0.229,0.139-0.449,0.264-0.658,0.371
		c-0.209,0.108-0.386,0.195-0.528,0.258c-0.219,0.176-0.452,0.398-0.699,0.67s-0.495,0.569-0.742,0.895s-0.481,0.667-0.704,1.025
		s-0.413,0.713-0.574,1.063c-0.16,0.351-0.282,0.691-0.367,1.022c-0.085,0.33-0.112,0.625-0.083,0.886
		c0.011,0.088,0.035,0.173,0.075,0.256c0.039,0.082,0.097,0.154,0.173,0.214c0.076,0.061,0.168,0.104,0.275,0.13
		c0.108,0.026,0.236,0.031,0.384,0.015c0.379-0.044,0.765-0.141,1.157-0.291c0.394-0.149,0.783-0.339,1.171-0.566
		c0.387-0.228,0.769-0.485,1.142-0.773c0.374-0.289,0.732-0.591,1.073-0.906c0.341-0.314,0.662-0.638,0.962-0.969
		c0.301-0.332,0.574-0.652,0.82-0.962c0.109-0.144,0.205-0.222,0.288-0.23c0.064-0.008,0.103,0.036,0.113,0.13
		c0.01,0.083-0.007,0.196-0.051,0.339c-0.044,0.144-0.118,0.298-0.226,0.466c-0.202,0.323-0.436,0.659-0.701,1.007
		c-0.266,0.349-0.559,0.693-0.879,1.032s-0.666,0.665-1.037,0.977c-0.372,0.313-0.768,0.596-1.188,0.848
		c-0.42,0.252-0.863,0.465-1.328,0.638c-0.466,0.174-0.949,0.29-1.452,0.348c-0.603,0.069-1.066-0.02-1.393-0.266
		c-0.324-0.249-0.521-0.668-0.589-1.26c-0.059-0.508-0.005-1.044,0.16-1.608c0.165-0.563,0.406-1.126,0.723-1.688
		c0.315-0.561,0.691-1.108,1.127-1.644c0.436-0.536,0.896-1.03,1.379-1.485c0.483-0.454,0.974-0.855,1.47-1.207
		C193.66,60.769,194.126,60.495,194.566,60.301z"/>
	<path fill="#4D4D4F" d="M204.578,59.758c0.308-0.036,0.574-0.035,0.801,0.002c0.226,0.037,0.412,0.103,0.562,0.197
		c0.148,0.093,0.264,0.21,0.346,0.35c0.082,0.142,0.133,0.297,0.153,0.469c0.033,0.29-0.063,0.606-0.287,0.95
		c-0.223,0.344-0.528,0.687-0.914,1.029c-0.386,0.345-0.823,0.679-1.313,1.002c-0.49,0.322-0.985,0.613-1.486,0.871
		c-0.5,0.26-0.978,0.473-1.431,0.643c-0.454,0.169-0.838,0.271-1.151,0.308c-0.171,0.02-0.321-0.018-0.448-0.11
		c-0.128-0.093-0.218-0.206-0.269-0.338c-0.136,0.435-0.182,0.846-0.137,1.229c0.023,0.207,0.08,0.399,0.17,0.578
		s0.219,0.329,0.389,0.449c0.17,0.121,0.385,0.207,0.646,0.259c0.261,0.05,0.574,0.055,0.94,0.012
		c0.526-0.061,1.051-0.193,1.572-0.396c0.521-0.204,1.024-0.453,1.509-0.749c0.484-0.295,0.943-0.626,1.377-0.994
		c0.435-0.367,0.826-0.749,1.176-1.143c0.134-0.146,0.236-0.224,0.307-0.232c0.059-0.007,0.093,0.028,0.102,0.104
		c0.008,0.066-0.004,0.155-0.036,0.27s-0.085,0.233-0.161,0.355c-0.151,0.245-0.34,0.512-0.564,0.798s-0.476,0.575-0.754,0.864
		c-0.279,0.289-0.583,0.571-0.914,0.847c-0.33,0.274-0.678,0.524-1.041,0.749c-0.364,0.225-0.744,0.413-1.139,0.568
		c-0.396,0.152-0.798,0.253-1.206,0.3c-0.367,0.042-0.746,0.04-1.138-0.004c-0.391-0.045-0.753-0.148-1.082-0.311
		c-0.331-0.163-0.612-0.395-0.844-0.694c-0.232-0.3-0.376-0.683-0.43-1.149c-0.063-0.55-0.001-1.101,0.188-1.648
		c0.188-0.551,0.458-1.078,0.811-1.586c0.352-0.508,0.768-0.983,1.246-1.429c0.479-0.444,0.978-0.839,1.495-1.184
		c0.518-0.344,1.033-0.624,1.548-0.84C203.682,59.94,204.152,59.807,204.578,59.758z M201.248,55.981
		c0.052-0.125,0.128-0.223,0.231-0.291c0.103-0.069,0.213-0.11,0.332-0.124c0.101-0.012,0.197,0,0.291,0.033
		c0.094,0.034,0.164,0.1,0.212,0.195c0.117,0.239,0.251,0.457,0.403,0.656c0.151,0.197,0.309,0.374,0.47,0.529
		c0.162,0.156,0.324,0.29,0.487,0.407c0.163,0.116,0.315,0.21,0.455,0.284c0.129,0.069,0.222,0.142,0.282,0.22
		c0.059,0.076,0.094,0.153,0.103,0.229c0.008,0.072-0.001,0.139-0.026,0.202c-0.025,0.063-0.063,0.119-0.11,0.17
		c-0.049,0.049-0.105,0.093-0.17,0.126c-0.065,0.035-0.131,0.056-0.195,0.063c-0.065,0.008-0.179-0.036-0.343-0.131
		s-0.353-0.235-0.565-0.421c-0.213-0.185-0.435-0.407-0.666-0.669c-0.23-0.261-0.44-0.557-0.628-0.89
		c-0.11,0.295-0.242,0.593-0.396,0.896c-0.154,0.302-0.32,0.604-0.499,0.901c-0.178,0.3-0.366,0.593-0.563,0.88
		c-0.197,0.286-0.392,0.56-0.583,0.822c-0.115,0.15-0.217,0.23-0.305,0.241c-0.083,0.009-0.148-0.025-0.197-0.108
		c-0.048-0.08-0.079-0.184-0.094-0.308c-0.016-0.136-0.009-0.281,0.022-0.434c0.029-0.153,0.089-0.292,0.176-0.416
		c0.078-0.105,0.193-0.266,0.346-0.479c0.151-0.216,0.317-0.462,0.498-0.741c0.181-0.278,0.363-0.576,0.549-0.895
		C200.95,56.613,201.111,56.296,201.248,55.981z M199.402,64.525c0.52-0.173,1.035-0.37,1.545-0.591
		c0.511-0.222,0.997-0.45,1.459-0.686c0.46-0.235,0.887-0.473,1.279-0.714c0.391-0.24,0.729-0.465,1.014-0.678
		c0.283-0.213,0.503-0.407,0.655-0.584c0.154-0.177,0.225-0.321,0.211-0.434c-0.011-0.1-0.083-0.188-0.214-0.262
		c-0.132-0.075-0.301-0.101-0.508-0.076c-0.261,0.029-0.551,0.102-0.869,0.217c-0.32,0.115-0.651,0.264-0.995,0.447
		c-0.345,0.183-0.691,0.397-1.041,0.641c-0.35,0.244-0.683,0.51-1,0.799c-0.317,0.288-0.609,0.594-0.874,0.918
		S199.579,64.18,199.402,64.525z"/>
	<path fill="#4D4D4F" d="M222.636,57.677c0.308-0.035,0.574-0.034,0.801,0.002c0.226,0.037,0.413,0.103,0.562,0.197
		c0.148,0.093,0.264,0.21,0.347,0.35c0.082,0.142,0.132,0.297,0.152,0.469c0.033,0.29-0.063,0.606-0.286,0.95
		s-0.529,0.687-0.915,1.029c-0.386,0.345-0.823,0.679-1.313,1.002c-0.49,0.322-0.985,0.613-1.485,0.871
		c-0.501,0.26-0.978,0.474-1.432,0.643s-0.838,0.271-1.151,0.308c-0.171,0.02-0.321-0.018-0.448-0.109
		c-0.128-0.094-0.218-0.207-0.269-0.339c-0.136,0.435-0.182,0.846-0.137,1.229c0.023,0.207,0.08,0.399,0.17,0.578
		s0.22,0.329,0.389,0.449c0.17,0.121,0.386,0.207,0.646,0.259c0.261,0.05,0.574,0.055,0.941,0.012
		c0.526-0.061,1.05-0.192,1.571-0.396c0.521-0.203,1.024-0.452,1.51-0.749c0.483-0.295,0.942-0.626,1.377-0.993
		c0.434-0.368,0.826-0.75,1.175-1.144c0.134-0.146,0.236-0.224,0.307-0.231c0.059-0.007,0.094,0.027,0.102,0.104
		c0.008,0.066-0.004,0.155-0.035,0.27c-0.033,0.114-0.086,0.233-0.162,0.356c-0.151,0.244-0.34,0.511-0.564,0.797
		s-0.476,0.575-0.754,0.864c-0.278,0.29-0.583,0.571-0.914,0.847c-0.33,0.274-0.678,0.524-1.041,0.749
		c-0.364,0.225-0.743,0.413-1.139,0.568c-0.396,0.152-0.798,0.253-1.206,0.3c-0.366,0.042-0.745,0.04-1.138-0.004
		c-0.391-0.045-0.752-0.148-1.082-0.311c-0.331-0.163-0.611-0.395-0.844-0.694s-0.376-0.683-0.43-1.149
		c-0.063-0.55-0.001-1.101,0.188-1.648c0.188-0.55,0.458-1.078,0.811-1.586c0.352-0.508,0.768-0.983,1.246-1.429
		c0.479-0.444,0.978-0.839,1.495-1.184c0.518-0.344,1.033-0.624,1.548-0.839S222.21,57.726,222.636,57.677z M221.565,52.588
		c0.038,0.067,0.07,0.135,0.099,0.2c0.029,0.065,0.048,0.138,0.057,0.214c0.012,0.105,0,0.227-0.034,0.363
		c-0.036,0.136-0.103,0.297-0.201,0.482c-0.108,0.197-0.257,0.424-0.442,0.679c-0.187,0.255-0.393,0.523-0.617,0.804
		c-0.226,0.281-0.462,0.561-0.708,0.841c-0.247,0.28-0.479,0.543-0.7,0.787s-0.42,0.461-0.599,0.652
		c-0.179,0.192-0.313,0.334-0.405,0.429c-0.091,0.095-0.189,0.167-0.298,0.219s-0.206,0.083-0.295,0.093
		c-0.177,0.021-0.273-0.034-0.288-0.165c-0.02-0.165,0.111-0.406,0.394-0.72c0.308-0.341,0.63-0.721,0.965-1.14
		s0.656-0.843,0.963-1.271c0.308-0.428,0.591-0.846,0.85-1.252c0.258-0.408,0.468-0.77,0.629-1.088
		c0.05-0.091,0.101-0.165,0.153-0.226c0.054-0.06,0.113-0.094,0.178-0.102C221.37,52.376,221.47,52.444,221.565,52.588z
		 M217.46,62.445c0.52-0.174,1.035-0.371,1.546-0.592c0.51-0.222,0.996-0.449,1.458-0.686c0.461-0.235,0.887-0.473,1.279-0.714
		c0.391-0.24,0.729-0.465,1.014-0.678c0.283-0.213,0.503-0.407,0.656-0.584c0.153-0.176,0.224-0.321,0.21-0.434
		c-0.011-0.1-0.083-0.188-0.214-0.262c-0.132-0.075-0.301-0.1-0.508-0.076c-0.26,0.03-0.55,0.102-0.869,0.217
		s-0.651,0.265-0.995,0.447c-0.345,0.184-0.691,0.397-1.041,0.641c-0.35,0.244-0.683,0.51-1,0.799
		c-0.317,0.288-0.608,0.594-0.874,0.918C217.858,61.766,217.637,62.099,217.46,62.445z"/>
	<path fill="#4D4D4F" d="M241.714,54.849c0.236-0.027,0.416-0.003,0.538,0.069s0.196,0.222,0.223,0.446
		c0.007,0.06,0.008,0.11,0.004,0.156s-0.01,0.088-0.018,0.123c0.04-0.017,0.081-0.027,0.122-0.032s0.086-0.01,0.134-0.015
		c0.218-0.025,0.389,0.004,0.508,0.085c0.121,0.083,0.19,0.2,0.208,0.354c0.035,0.308-0.014,0.667-0.146,1.074
		s-0.331,0.851-0.593,1.329c-0.001,0.043,0.001,0.086,0.006,0.127s0.01,0.086,0.015,0.133c0.011,0.089,0.022,0.177,0.035,0.266
		c0.014,0.088,0.025,0.174,0.034,0.256c0.02,0.166,0.054,0.361,0.104,0.586c0.049,0.225,0.109,0.464,0.181,0.716
		c0.071,0.254,0.149,0.514,0.233,0.782c0.085,0.27,0.171,0.527,0.256,0.774c0.086,0.249,0.167,0.478,0.245,0.687
		c0.079,0.21,0.146,0.386,0.205,0.53c0.039,0.078,0.068,0.159,0.087,0.241c0.018,0.082,0.031,0.16,0.04,0.237
		c0.024,0.207,0.004,0.385-0.06,0.532c-0.064,0.148-0.173,0.232-0.326,0.25c-0.077,0.009-0.171-0.061-0.28-0.207
		s-0.229-0.344-0.356-0.596c-0.128-0.252-0.26-0.543-0.396-0.871c-0.137-0.329-0.266-0.67-0.388-1.021
		c-0.121-0.353-0.23-0.703-0.328-1.055c-0.098-0.351-0.176-0.677-0.233-0.975c-0.419,0.569-0.892,1.127-1.416,1.673
		s-1.067,1.039-1.627,1.477c-0.561,0.439-1.124,0.806-1.689,1.098c-0.565,0.294-1.1,0.469-1.602,0.527
		c-0.207,0.023-0.389,0.008-0.545-0.045c-0.156-0.055-0.291-0.138-0.406-0.25c-0.115-0.114-0.205-0.248-0.271-0.405
		c-0.065-0.157-0.109-0.33-0.132-0.52c-0.038-0.337,0.005-0.713,0.131-1.13c0.126-0.416,0.311-0.849,0.556-1.299
		c0.245-0.451,0.541-0.911,0.888-1.379c0.348-0.469,0.723-0.922,1.124-1.361c0.402-0.438,0.823-0.854,1.264-1.246
		c0.439-0.393,0.877-0.739,1.309-1.041c0.433-0.302,0.852-0.547,1.259-0.737S241.383,54.888,241.714,54.849z M241.624,58.599
		c-0.04-0.504-0.042-0.975-0.005-1.41c0.036-0.435,0.141-0.795,0.312-1.078c-0.035-0.002-0.072-0.003-0.107-0.001
		c-0.036,0.001-0.071,0.004-0.107,0.008c-0.07,0.009-0.142,0.021-0.211,0.037c-0.07,0.018-0.145,0.045-0.225,0.085
		c-0.45,0.201-0.918,0.483-1.403,0.845s-0.96,0.763-1.425,1.206c-0.464,0.442-0.901,0.91-1.313,1.4
		c-0.41,0.49-0.768,0.967-1.071,1.428c-0.304,0.459-0.537,0.886-0.701,1.28c-0.165,0.393-0.232,0.717-0.203,0.971
		c0.025,0.219,0.153,0.315,0.384,0.289c0.184-0.021,0.42-0.098,0.711-0.226c0.291-0.13,0.615-0.307,0.973-0.531
		c0.357-0.223,0.734-0.486,1.131-0.79c0.396-0.303,0.789-0.639,1.179-1.008c0.388-0.368,0.762-0.763,1.121-1.186
		C241.021,59.497,241.342,59.057,241.624,58.599z"/>
	<path fill="#4D4D4F" d="M251.091,53.949c0.106-0.012,0.205-0.001,0.296,0.034c0.091,0.034,0.17,0.079,0.236,0.134
		c0.065,0.056,0.12,0.119,0.161,0.188c0.041,0.071,0.064,0.132,0.07,0.186c0.015,0.124-0.006,0.225-0.06,0.304
		c-0.054,0.077-0.183,0.146-0.385,0.206c-0.29,0.086-0.603,0.208-0.938,0.363c-0.336,0.156-0.673,0.329-1.01,0.521
		c-0.338,0.191-0.665,0.398-0.984,0.621s-0.609,0.449-0.87,0.68c-0.261,0.231-0.482,0.457-0.663,0.679
		c-0.181,0.223-0.3,0.428-0.355,0.62c0.194-0.075,0.482-0.184,0.861-0.323c0.38-0.14,0.808-0.283,1.285-0.432
		c0.478-0.147,0.977-0.284,1.498-0.411c0.522-0.125,1.022-0.216,1.501-0.271c0.758-0.088,1.328-0.021,1.713,0.197
		s0.607,0.595,0.669,1.127c0.041,0.355-0.009,0.702-0.149,1.042s-0.344,0.669-0.609,0.987c-0.267,0.317-0.58,0.622-0.942,0.913
		c-0.362,0.29-0.744,0.561-1.146,0.81c-0.402,0.252-0.813,0.478-1.229,0.683c-0.417,0.203-0.812,0.38-1.184,0.53
		c-0.372,0.151-0.707,0.273-1.005,0.363c-0.298,0.091-0.532,0.146-0.704,0.167c-0.143,0.016-0.262-0.006-0.358-0.067
		c-0.097-0.06-0.175-0.136-0.233-0.229c-0.059-0.092-0.102-0.19-0.129-0.295c-0.026-0.105-0.044-0.195-0.053-0.273
		c-0.018-0.153,0.019-0.251,0.109-0.296c0.091-0.043,0.228-0.075,0.411-0.097c0.379-0.043,0.805-0.143,1.277-0.3
		c0.474-0.156,0.95-0.349,1.43-0.578c0.48-0.229,0.946-0.485,1.398-0.772c0.453-0.285,0.851-0.58,1.192-0.883
		c0.343-0.304,0.612-0.604,0.809-0.901c0.196-0.3,0.279-0.578,0.25-0.838c-0.028-0.242-0.15-0.405-0.367-0.488
		c-0.216-0.083-0.587-0.094-1.113-0.033c-0.621,0.071-1.221,0.187-1.798,0.347c-0.578,0.159-1.11,0.323-1.597,0.494
		c-0.486,0.17-0.92,0.322-1.3,0.459s-0.683,0.219-0.907,0.244c-0.082,0.01-0.16,0.005-0.234-0.014
		c-0.074-0.018-0.142-0.056-0.202-0.111c-0.06-0.057-0.113-0.135-0.157-0.238c-0.045-0.103-0.076-0.237-0.096-0.402
		c-0.022-0.194,0.021-0.41,0.133-0.645c0.11-0.234,0.267-0.476,0.469-0.723c0.202-0.249,0.442-0.5,0.723-0.753
		c0.278-0.254,0.574-0.5,0.886-0.735c0.311-0.237,0.631-0.46,0.961-0.669c0.329-0.208,0.645-0.392,0.947-0.55
		c0.303-0.157,0.583-0.287,0.841-0.389S250.914,53.969,251.091,53.949z"/>
	<path fill="#4D4D4F" d="M260.918,52.817c0.107-0.013,0.206-0.001,0.297,0.034c0.091,0.034,0.169,0.078,0.235,0.133
		c0.065,0.056,0.12,0.12,0.161,0.189c0.041,0.07,0.064,0.131,0.071,0.185c0.014,0.124-0.006,0.226-0.06,0.304
		c-0.054,0.077-0.183,0.146-0.386,0.207c-0.289,0.086-0.602,0.208-0.938,0.363s-0.672,0.328-1.009,0.521
		c-0.338,0.191-0.667,0.398-0.985,0.621s-0.608,0.449-0.869,0.681c-0.262,0.23-0.482,0.456-0.663,0.678
		c-0.182,0.223-0.301,0.429-0.356,0.621c0.195-0.076,0.482-0.185,0.861-0.324c0.38-0.14,0.809-0.283,1.285-0.431
		c0.478-0.148,0.977-0.285,1.499-0.411c0.521-0.126,1.022-0.216,1.501-0.271c0.757-0.087,1.328-0.021,1.713,0.197
		c0.385,0.22,0.606,0.596,0.668,1.128c0.041,0.355-0.009,0.701-0.148,1.041c-0.142,0.34-0.345,0.669-0.61,0.987
		s-0.58,0.622-0.941,0.913c-0.362,0.29-0.744,0.561-1.147,0.811c-0.402,0.251-0.813,0.478-1.229,0.682
		c-0.417,0.203-0.812,0.381-1.185,0.531c-0.371,0.15-0.706,0.272-1.005,0.363c-0.298,0.091-0.532,0.146-0.704,0.166
		c-0.142,0.017-0.261-0.006-0.358-0.066c-0.097-0.061-0.174-0.137-0.232-0.229c-0.059-0.091-0.102-0.19-0.129-0.295
		s-0.045-0.194-0.054-0.272c-0.018-0.153,0.019-0.252,0.109-0.296c0.091-0.043,0.229-0.076,0.412-0.097
		c0.378-0.044,0.804-0.144,1.277-0.3c0.473-0.156,0.95-0.349,1.43-0.578s0.946-0.486,1.398-0.773
		c0.452-0.284,0.85-0.579,1.192-0.882c0.343-0.304,0.612-0.604,0.809-0.902c0.195-0.299,0.279-0.578,0.249-0.838
		c-0.028-0.242-0.15-0.405-0.366-0.488s-0.588-0.094-1.114-0.032c-0.621,0.071-1.22,0.186-1.797,0.346
		c-0.578,0.159-1.11,0.323-1.598,0.494c-0.487,0.17-0.919,0.323-1.3,0.46c-0.379,0.137-0.682,0.218-0.906,0.243
		c-0.083,0.01-0.162,0.005-0.235-0.013c-0.074-0.019-0.142-0.057-0.201-0.111c-0.061-0.057-0.113-0.136-0.158-0.238
		s-0.076-0.237-0.096-0.402c-0.022-0.194,0.021-0.41,0.133-0.646c0.11-0.234,0.267-0.476,0.47-0.723
		c0.201-0.249,0.442-0.499,0.721-0.753c0.28-0.254,0.575-0.5,0.887-0.735c0.312-0.236,0.632-0.46,0.961-0.669
		c0.329-0.208,0.646-0.391,0.947-0.55c0.303-0.157,0.583-0.286,0.841-0.389C260.525,52.899,260.742,52.837,260.918,52.817z"/>
	<path fill="#4D4D4F" d="M266.199,48.326c0.266-0.031,0.476,0.033,0.629,0.191c0.153,0.159,0.244,0.37,0.274,0.63
		c0.039,0.338-0.032,0.615-0.214,0.833c-0.182,0.219-0.433,0.347-0.751,0.383c-0.272,0.031-0.488-0.025-0.649-0.171
		c-0.16-0.147-0.257-0.361-0.29-0.646c-0.016-0.136-0.004-0.273,0.034-0.409s0.102-0.262,0.19-0.376
		c0.088-0.116,0.197-0.212,0.326-0.29C265.876,48.395,266.027,48.346,266.199,48.326z M266.371,52.71
		c0.076-0.009,0.167,0.012,0.272,0.063c0.104,0.05,0.207,0.117,0.306,0.202c0.101,0.084,0.187,0.181,0.259,0.288
		c0.072,0.108,0.114,0.218,0.127,0.323c0.007,0.064,0.016,0.236,0.023,0.514c0.007,0.278,0.018,0.616,0.031,1.018
		c0.014,0.399,0.034,0.832,0.064,1.3c0.03,0.467,0.07,0.922,0.122,1.365c0.065,0.574,0.124,1.04,0.174,1.396
		c0.05,0.357,0.092,0.641,0.125,0.852c0.033,0.213,0.061,0.37,0.081,0.473c0.021,0.102,0.035,0.181,0.041,0.234
		c0.008,0.07,0.008,0.137,0,0.196c-0.008,0.062-0.031,0.116-0.071,0.161c-0.04,0.047-0.101,0.088-0.185,0.121
		c-0.082,0.032-0.192,0.058-0.328,0.073c-0.124,0.015-0.229-0.024-0.314-0.117c-0.085-0.091-0.16-0.225-0.226-0.4
		s-0.12-0.389-0.164-0.641c-0.044-0.254-0.083-0.531-0.118-0.832c-0.111-0.964-0.205-1.848-0.283-2.65
		c-0.077-0.802-0.13-1.494-0.158-2.076c-0.028-0.58-0.024-1.033,0.01-1.357C266.195,52.89,266.265,52.723,266.371,52.71z"/>
	<path fill="#4D4D4F" d="M280.18,50.949c0.136-0.016,0.307,0.038,0.512,0.16c0.206,0.123,0.414,0.311,0.623,0.562
		c0.208,0.252,0.403,0.565,0.584,0.939c0.181,0.376,0.317,0.804,0.408,1.283c0.042,0.199,0.09,0.479,0.146,0.838
		c0.056,0.358,0.116,0.746,0.178,1.161c0.063,0.415,0.123,0.83,0.181,1.245c0.057,0.416,0.103,0.775,0.137,1.077
		c0.035,0.302,0.055,0.556,0.057,0.762c0.003,0.206-0.011,0.374-0.04,0.503c-0.031,0.13-0.077,0.226-0.139,0.287
		c-0.062,0.06-0.14,0.097-0.234,0.107c-0.101,0.011-0.182-0.002-0.243-0.04c-0.062-0.037-0.109-0.097-0.146-0.176
		c-0.037-0.081-0.065-0.178-0.088-0.292c-0.022-0.113-0.041-0.241-0.058-0.383c-0.011-0.096-0.031-0.264-0.063-0.506
		c-0.031-0.241-0.064-0.521-0.101-0.833c-0.036-0.313-0.078-0.649-0.125-1.006c-0.048-0.356-0.09-0.698-0.127-1.023
		c-0.038-0.325-0.072-0.616-0.105-0.873c-0.032-0.257-0.056-0.448-0.07-0.572c-0.038-0.337-0.105-0.62-0.201-0.848
		c-0.095-0.229-0.204-0.413-0.328-0.551c-0.124-0.139-0.253-0.234-0.389-0.289c-0.135-0.053-0.259-0.073-0.371-0.06
		c-0.101,0.012-0.256,0.088-0.467,0.229c-0.212,0.141-0.445,0.326-0.7,0.556c-0.255,0.23-0.512,0.499-0.771,0.805
		c-0.259,0.305-0.481,0.63-0.669,0.976c0.033,0.181,0.059,0.326,0.076,0.437c0.019,0.108,0.034,0.216,0.047,0.322
		c0.09,0.786,0.145,1.485,0.161,2.098c0.017,0.611,0.009,1.13-0.023,1.554c-0.032,0.422-0.083,0.747-0.152,0.974
		c-0.07,0.228-0.144,0.345-0.221,0.354c-0.153,0.018-0.271-0.052-0.353-0.211c-0.081-0.159-0.139-0.388-0.174-0.689
		c-0.012-0.101-0.027-0.268-0.048-0.503c-0.021-0.234-0.045-0.508-0.069-0.823c-0.023-0.315-0.051-0.654-0.08-1.019
		c-0.03-0.366-0.061-0.725-0.089-1.079c-0.029-0.353-0.059-0.686-0.088-1c-0.03-0.313-0.059-0.58-0.083-0.8
		c-0.038-0.325-0.105-0.608-0.201-0.849c-0.098-0.24-0.212-0.438-0.343-0.594c-0.133-0.156-0.28-0.266-0.443-0.331
		s-0.327-0.088-0.493-0.068c-0.07,0.008-0.175,0.067-0.312,0.179c-0.138,0.112-0.291,0.265-0.464,0.459
		c-0.173,0.193-0.354,0.419-0.546,0.678c-0.192,0.259-0.379,0.541-0.56,0.847s-0.347,0.626-0.5,0.961
		c-0.153,0.334-0.276,0.676-0.368,1.021c0.06,0.3,0.106,0.572,0.145,0.819c0.037,0.248,0.063,0.438,0.079,0.574
		c0.029,0.249,0.041,0.495,0.036,0.739c-0.005,0.242-0.024,0.461-0.059,0.657c-0.035,0.196-0.087,0.357-0.156,0.485
		c-0.068,0.128-0.156,0.198-0.263,0.211c-0.077,0.009-0.143-0.013-0.196-0.063s-0.098-0.124-0.133-0.219
		c-0.035-0.094-0.064-0.21-0.089-0.345c-0.025-0.135-0.046-0.278-0.064-0.433c-0.011-0.101-0.021-0.206-0.031-0.316
		c-0.01-0.108-0.021-0.224-0.034-0.341c-0.018-0.148-0.045-0.369-0.082-0.665s-0.081-0.628-0.133-0.996
		c-0.051-0.369-0.106-0.756-0.165-1.162c-0.059-0.407-0.12-0.797-0.185-1.169c-0.063-0.374-0.128-0.714-0.193-1.021
		c-0.065-0.307-0.126-0.543-0.181-0.711c-0.121-0.37-0.197-0.691-0.229-0.963c-0.024-0.213-0.02-0.379,0.015-0.5
		s0.099-0.187,0.192-0.197c0.119-0.014,0.232,0.027,0.344,0.127c0.11,0.098,0.218,0.272,0.324,0.523
		c0.107,0.251,0.216,0.59,0.324,1.015c0.109,0.425,0.222,0.96,0.338,1.605c0.147-0.383,0.336-0.762,0.564-1.14
		c0.23-0.377,0.467-0.714,0.711-1.012c0.245-0.298,0.479-0.541,0.702-0.732c0.224-0.189,0.407-0.294,0.548-0.311
		c0.267-0.03,0.526-0.003,0.778,0.082c0.252,0.083,0.492,0.216,0.72,0.397c0.228,0.181,0.439,0.401,0.639,0.663
		c0.197,0.262,0.372,0.559,0.524,0.889c0.266-0.343,0.556-0.66,0.869-0.956c0.314-0.293,0.618-0.548,0.914-0.765
		s0.565-0.389,0.808-0.515C279.871,51.033,280.055,50.962,280.18,50.949z"/>
</g>
</svg>
