<?xml version="1.0" encoding="utf-8"?>
<!-- Generated by IcoMoon.io -->
<!DOCTYPE svg PUBLIC "-//W3C//DTD SVG 1.1//EN" "http://www.w3.org/Graphics/SVG/1.1/DTD/svg11.dtd">

<svg version="1.1" xmlns="http://www.w3.org/2000/svg" xmlns:xlink="http://www.w3.org/1999/xlink" width="547" height="32" viewBox="0 0 547 32">
<defs>
<g id="icon-search">
	<path class="path1" d="M20.571 14.857q0-3.304-2.348-5.652t-5.652-2.348-5.652 2.348-2.348 5.652 2.348 5.652 5.652 2.348 5.652-2.348 2.348-5.652zM29.714 29.714q0 0.929-0.679 1.607t-1.607 0.679q-0.964 0-1.607-0.679l-6.125-6.107q-3.196 2.214-7.125 2.214-2.554 0-4.884-0.991t-4.018-2.679-2.679-4.018-0.991-4.884 0.991-4.884 2.679-4.018 4.018-2.679 4.884-0.991 4.884 0.991 4.018 2.679 2.679 4.018 0.991 4.884q0 3.929-2.214 7.125l6.125 6.125q0.661 0.661 0.661 1.607z"></path>
</g>
<g id="icon-search-plus">
	<path class="path1" d="M18.286 14.286v1.143q0 0.232-0.17 0.402t-0.402 0.17h-4v4q0 0.232-0.17 0.402t-0.402 0.17h-1.143q-0.232 0-0.402-0.17t-0.17-0.402v-4h-4q-0.232 0-0.402-0.17t-0.17-0.402v-1.143q0-0.232 0.17-0.402t0.402-0.17h4v-4q0-0.232 0.17-0.402t0.402-0.17h1.143q0.232 0 0.402 0.17t0.17 0.402v4h4q0.232 0 0.402 0.17t0.17 0.402zM20.571 14.857q0-3.304-2.348-5.652t-5.652-2.348-5.652 2.348-2.348 5.652 2.348 5.652 5.652 2.348 5.652-2.348 2.348-5.652zM29.714 29.714q0 0.946-0.67 1.616t-1.616 0.67q-0.964 0-1.607-0.679l-6.125-6.107q-3.196 2.214-7.125 2.214-2.554 0-4.884-0.991t-4.018-2.679-2.679-4.018-0.991-4.884 0.991-4.884 2.679-4.018 4.018-2.679 4.884-0.991 4.884 0.991 4.018 2.679 2.679 4.018 0.991 4.884q0 3.929-2.214 7.125l6.125 6.125q0.661 0.661 0.661 1.607z"></path>
</g>
<g id="icon-search-minus">
	<path class="path1" d="M18.286 14.286v1.143q0 0.232-0.17 0.402t-0.402 0.17h-10.286q-0.232 0-0.402-0.17t-0.17-0.402v-1.143q0-0.232 0.17-0.402t0.402-0.17h10.286q0.232 0 0.402 0.17t0.17 0.402zM20.571 14.857q0-3.304-2.348-5.652t-5.652-2.348-5.652 2.348-2.348 5.652 2.348 5.652 5.652 2.348 5.652-2.348 2.348-5.652zM29.714 29.714q0 0.946-0.67 1.616t-1.616 0.67q-0.964 0-1.607-0.679l-6.125-6.107q-3.196 2.214-7.125 2.214-2.554 0-4.884-0.991t-4.018-2.679-2.679-4.018-0.991-4.884 0.991-4.884 2.679-4.018 4.018-2.679 4.884-0.991 4.884 0.991 4.018 2.679 2.679 4.018 0.991 4.884q0 3.929-2.214 7.125l6.125 6.125q0.661 0.661 0.661 1.607z"></path>
</g>
<g id="icon-power-off">
	<path class="path1" d="M27.429 16q0 2.786-1.089 5.321t-2.929 4.375-4.375 2.929-5.321 1.089-5.321-1.089-4.375-2.929-2.929-4.375-1.089-5.321q0-3.25 1.438-6.125t4.045-4.821q0.768-0.571 1.705-0.446t1.491 0.893q0.571 0.75 0.438 1.688t-0.884 1.509q-1.75 1.321-2.705 3.232t-0.955 4.071q0 1.857 0.723 3.545t1.955 2.92 2.92 1.955 3.545 0.723 3.545-0.723 2.92-1.955 1.955-2.92 0.723-3.545q0-2.161-0.955-4.071t-2.705-3.232q-0.75-0.571-0.884-1.509t0.438-1.688q0.554-0.768 1.5-0.893t1.696 0.446q2.607 1.946 4.045 4.821t1.438 6.125zM16 2.286v11.429q0 0.929-0.679 1.607t-1.607 0.679-1.607-0.679-0.679-1.607v-11.429q0-0.929 0.679-1.607t1.607-0.679 1.607 0.679 0.679 1.607z"></path>
</g>
<g id="icon-filter">
	<path class="path1" d="M25.054 5.268q0.304 0.732-0.25 1.25l-8.804 8.804v13.25q0 0.75-0.696 1.054-0.232 0.089-0.446 0.089-0.482 0-0.804-0.339l-4.571-4.571q-0.339-0.339-0.339-0.804v-8.679l-8.804-8.804q-0.554-0.518-0.25-1.25 0.304-0.696 1.054-0.696h22.857q0.75 0 1.054 0.696z"></path>
</g>
<g id="icon-home">
	<path class="path1" d="M32 18.451l-16-12.42-16 12.42v-5.064l16-12.42 16 12.42zM28 18v12h-8v-8h-8v8h-8v-12l12-9z"></path>
</g>
<g id="icon-user">
	<path class="path1" d="M19.463 21.96c-0.691-0.11-0.707-2.010-0.707-2.010s2.030-2.010 2.473-4.713c1.19 0 1.926-2.873 0.735-3.884 0.050-1.064 1.53-8.354-5.964-8.354-7.494 0-6.014 7.29-5.965 8.354-1.19 1.011-0.455 3.884 0.735 3.884 0.442 2.703 2.473 4.713 2.473 4.713s-0.016 1.9-0.707 2.010c-2.226 0.354-10.537 4.020-10.537 8.040h28c0-4.020-8.311-7.685-10.537-8.040z"></path>
</g>
<g id="icon-users">
	<path class="path1" d="M22.969 25.168c-0.592-0.093-0.606-1.708-0.606-1.708s1.74-1.708 2.119-4.005c1.020 0 1.65-2.442 0.63-3.301 0.043-0.904 1.311-7.099-5.112-7.099-6.424 0-5.155 6.195-5.112 7.099-1.020 0.859-0.39 3.301 0.63 3.301 0.379 2.297 2.12 4.005 2.12 4.005s-0.014 1.615-0.606 1.708c-1.908 0.301-9.031 3.416-9.031 6.832h24c0-3.416-7.124-6.531-9.031-6.832zM10.752 25.713c1.378-0.848 3.051-1.635 4.423-2.107-0.492-0.701-1.040-1.654-1.385-2.783-0.481-0.393-0.873-0.954-1.125-1.644-0.252-0.691-0.348-1.464-0.269-2.178 0.056-0.512 0.202-0.99 0.427-1.409-0.136-1.456-0.232-4.314 1.639-6.398 0.725-0.808 1.642-1.389 2.741-1.74-0.196-2.024-1.224-4.399-5.202-4.399-6.424 0-5.155 6.195-5.112 7.099-1.020 0.859-0.39 3.301 0.63 3.301 0.379 2.297 2.12 4.005 2.12 4.005s-0.014 1.615-0.606 1.708c-1.908 0.301-9.031 3.416-9.031 6.832h10.3c0.147-0.096 0.297-0.192 0.452-0.287z"></path>
</g>
<g id="icon-user2">
	<path class="path1" d="M8 10c0-4.418 3.582-8 8-8s8 3.582 8 8c0 4.418-3.582 8-8 8-4.418 0-8-3.582-8-8zM24 20h-16c-4.418 0-8 3.582-8 8v2h32v-2c0-4.418-3.582-8-8-8z"></path>
</g>
<g id="icon-user3">
	<path class="path1" d="M10 6c0-3.314 2.686-6 6-6s6 2.686 6 6c0 3.314-2.686 6-6 6-3.314 0-6-2.686-6-6zM24.002 14h-1.107l-6.222 12.633 2.327-11.633-3-3-3 3 2.327 11.633-6.222-12.633h-1.107c-3.998 0-3.998 2.687-3.998 6v10h24v-10c0-3.313 0-6-3.998-6z"></path>
</g>
<g id="icon-thumbs-up">
	<path class="path1" d="M29 18c2.281 0 1 6-1 6 1 0 0 5-2 5 0 2-2 3-4 3-8.448 0-5.477-2.114-14-3v-16c7.529-2.258 15-7.92 15-13 1.656 0 6 2 0 12 0 0 5 0 6 0 3 0 2 6 0 6zM6 13v16h2v1h-4c-1.1 0-2-1.35-2-3v-12c0-1.65 0.9-3 2-3h4v1h-2z"></path>
</g>
<g id="icon-thumbs-up2">
	<path class="path1" d="M3 14c-2.281 0-1-6 1-6-1 0 0-5 2-5 0-2 2-3 4-3 8.448 0 5.477 2.114 14 3v16c-7.529 2.258-15 7.919-15 13-1.656 0-6-2 0-12 0 0-5 0-6 0-3 0-2-6 0-6zM26 19v-16h-2v-1h4c1.1 0 2 1.35 2 3v12c0 1.65-0.9 3-2 3h-4v-1h2z"></path>
</g>
</defs>

<g fill="#999999">
	<use xlink:href="#icon-search" transform="translate(0 0)"></use>
	<use xlink:href="#icon-search-plus" transform="translate(46 0)"></use>
	<use xlink:href="#icon-search-minus" transform="translate(92 0)"></use>
	<use xlink:href="#icon-power-off" transform="translate(138 0)"></use>
	<use xlink:href="#icon-filter" transform="translate(186 0)"></use>
	<use xlink:href="#icon-home" transform="translate(227 0)"></use>
	<use xlink:href="#icon-user" transform="translate(275 0)"></use>
	<use xlink:href="#icon-users" transform="translate(323 0)"></use>
	<use xlink:href="#icon-user2" transform="translate(371 0)"></use>
	<use xlink:href="#icon-user3" transform="translate(419 0)"></use>
	<use xlink:href="#icon-thumbs-up" transform="translate(467 0)"></use>
	<use xlink:href="#icon-thumbs-up2" transform="translate(515 0)"></use>
</g>

</svg>
